<svg width="66" height="74" viewBox="0 0 66 74" fill="none" xmlns="http://www.w3.org/2000/svg">
<path d="M22.515 48.026C25.5877 47.9777 28.6178 48.7485 31.294 50.259C33.3422 51.5256 35.5729 52.47 37.908 53.059C40.422 53.583 43.016 53.359 45.553 53.68C46.4316 53.7419 47.2825 54.0138 48.034 54.473C48.4322 54.8211 48.8621 55.1311 49.318 55.399C50.248 55.811 51.605 54.747 52.418 54.355C53.806 53.684 55.193 53.008 56.583 52.342C58.1787 51.4518 60.0589 51.22 61.823 51.696C64.544 52.572 66.362 55.917 63.701 58.011C58.369 62.211 52.974 66.32 47.469 70.289C45.0541 71.9496 42.2308 72.9179 39.305 73.089C34.505 73.452 29.776 72.234 25.105 71.319C22.892 70.885 20.679 70.447 18.46 70.041C15.7 69.535 13.56 71.429 11.347 72.785C10.634 73.222 9.74703 73.775 9.18803 72.831C8.26603 71.267 7.29403 69.731 6.37103 68.17C4.64003 65.237 2.92903 62.293 1.21203 59.352C0.921034 58.852 0.912034 58.788 1.28003 58.362C1.55261 58.0195 1.87563 57.7204 2.23803 57.475C5.66803 55.405 9.10003 53.337 12.559 51.316C15.687 49.488 18.792 48.1 22.491 48.029H22.512L22.515 48.026ZM24.712 61.05C24.712 61.05 24.712 61.043 24.712 61.039C24.7401 60.9127 24.817 60.8027 24.926 60.733C26.239 59.678 27.926 60.078 29.443 60.298C31.116 60.54 32.759 60.961 34.436 61.179C37.2014 61.539 39.968 61.8783 42.736 62.197C43.7022 62.3202 44.675 62.3847 45.649 62.39C46.2661 62.4044 46.8663 62.1873 47.3313 61.7814C47.7964 61.3756 48.0928 60.8104 48.162 60.197C48.2847 59.3301 48.1278 58.4466 47.714 57.675C47.5046 57.193 47.1663 56.7781 46.7364 56.4759C46.3064 56.1737 45.8015 55.9959 45.277 55.962C44.001 55.851 42.719 55.81 41.441 55.723C40.27 55.643 39.092 55.605 37.932 55.439C35.5801 55.0509 33.3237 54.2177 31.284 52.984C30.462 52.513 29.626 52.061 28.766 51.667C27.0674 50.8723 25.227 50.4253 23.353 50.352C21.2096 50.3382 19.086 50.7633 17.113 51.601C14.6885 52.6259 12.3681 53.8817 10.184 55.351C8.21703 56.587 6.23103 57.792 4.25403 59.011C4.16603 59.065 4.08303 59.128 3.96303 59.211L10.463 70.448C11.508 69.837 12.541 69.34 13.452 68.675C14.1138 68.1841 14.8719 67.8386 15.6765 67.6611C16.4811 67.4836 17.3141 67.4781 18.121 67.645C20.2764 68.023 22.4267 68.4307 24.572 68.868C26.872 69.34 29.155 69.903 31.459 70.36C34.0301 70.8799 36.6698 70.9688 39.27 70.623C42.9467 70.1264 46.4242 68.6572 49.343 66.367C50.743 65.292 52.122 64.198 53.508 63.108C55.219 61.79 56.908 60.436 58.6 59.099C59.8456 58.321 60.9929 57.3956 62.017 56.343C63.625 54.279 59.643 53.567 58.339 54.164C57.271 54.653 56.212 55.164 55.151 55.664C54.017 56.202 52.89 56.754 51.751 57.277C51.4291 57.4072 51.1459 57.6176 50.9283 57.8882C50.7107 58.1588 50.566 58.4806 50.508 58.823C50.422 59.349 50.479 59.887 50.444 60.423C50.3659 61.449 49.9494 62.4201 49.2599 63.1838C48.5703 63.9476 47.6468 64.4608 46.634 64.643C45.5769 64.8093 44.5008 64.8147 43.442 64.659C41.597 64.47 39.756 64.239 37.918 63.986C35.5307 63.658 33.144 63.3247 30.758 62.986C28.812 62.711 26.072 63.286 24.817 61.334C24.7553 61.2519 24.7204 61.1527 24.717 61.05" fill="#FFA101"/>
<path d="M32.89 0V48.143C32.2794 48.1122 31.705 47.8439 31.2893 47.3956C30.8737 46.9472 30.6496 46.3542 30.665 45.743C30.641 44.354 30.665 42.965 30.665 41.576C30.665 40.628 30.678 39.676 30.682 38.731C30.691 36.648 30.706 34.564 30.706 32.48C30.706 23.3573 30.706 14.2343 30.706 5.111V4.478C30.497 4.572 30.35 4.621 30.22 4.698C28.472 5.729 26.72 6.758 24.982 7.798C21.8 9.707 18.63 11.64 15.43 13.524C14.9667 13.7618 14.5825 14.1294 14.3245 14.5819C14.0665 15.0343 13.9458 15.5521 13.977 16.072C14.004 23.806 13.995 31.54 14.006 39.272C14.006 41.542 14.044 43.813 14.055 46.083C14.0568 46.3902 14.0321 46.697 13.981 47C13.886 47.5312 13.6107 48.0135 13.2016 48.3654C12.7924 48.7173 12.2745 48.9174 11.735 48.932V48.5C11.735 39.35 11.733 30.2 11.729 21.05C11.729 19.756 11.629 18.463 11.604 17.169C11.5805 16.3292 11.5999 15.4888 11.662 14.651C11.7001 14.1619 11.8445 13.6871 12.0851 13.2596C12.3257 12.8321 12.6567 12.4623 13.055 12.176C13.4946 11.8276 13.9652 11.5203 14.461 11.258C16.8 10.098 18.961 8.649 21.172 7.267C24.568 5.141 27.962 3.01233 31.354 0.881C31.836 0.581 32.341 0.314 32.889 0" fill="#FFA101"/>
<path d="M52.246 51.458C52.227 50.816 52.193 50.191 52.193 49.566C52.193 43.115 52.193 36.666 52.221 30.212C52.2505 29.7252 52.1384 29.2404 51.8983 28.8159C51.6582 28.3914 51.3004 28.0456 50.868 27.82C46.2727 25.0967 41.6864 22.3587 37.109 19.606C36.8895 19.4788 36.6784 19.3375 36.477 19.183C36.0101 18.8366 35.6782 18.3385 35.5383 17.7742C35.3984 17.2099 35.4591 16.6145 35.71 16.09C35.85 16.167 35.987 16.236 36.119 16.316C41.0724 19.3247 46.0257 22.3333 50.979 25.342C51.767 25.82 52.556 26.297 53.364 26.742C53.7204 26.9156 54.0174 27.1909 54.2175 27.5332C54.4175 27.8754 54.5117 28.2693 54.488 28.665C54.472 31.0023 54.464 33.3397 54.464 35.677C54.4674 39.831 54.476 43.985 54.49 48.139C54.49 48.633 54.509 49.13 54.466 49.62C54.4531 49.8912 54.3837 50.1567 54.2625 50.3995C54.1412 50.6424 53.9706 50.8574 53.7617 51.0307C53.5527 51.204 53.3099 51.3318 53.0488 51.4061C52.7877 51.4804 52.5139 51.4994 52.245 51.462" fill="#FFA101"/>
<path d="M18.269 33.927V28.884H20.462C20.462 29.252 20.467 29.595 20.462 29.938C20.447 30.938 20.468 32.927 20.462 33.928L18.269 33.927Z" fill="#FFA101"/>
<path d="M20.462 38.679H18.269V43.764H20.462V38.679Z" fill="#FFA101"/>
<path d="M20.462 19.108H18.269V24.176H20.462V19.108Z" fill="#FFA101"/>
<path d="M40.644 38.721H38.658V43.745H40.644V38.721Z" fill="#FFA101"/>
<path d="M26.351 28.886H24.363V33.927H26.351V28.886Z" fill="#FFA101"/>
<path d="M46.753 28.895H44.795V33.964H46.753V28.895Z" fill="#FFA101"/>
<path d="M26.351 38.687H24.363V43.76H26.351V38.687Z" fill="#FFA101"/>
<path d="M26.351 19.113H24.363V24.175H26.351V19.113Z" fill="#FFA101"/>
<path d="M46.753 38.699H44.795V43.775H46.753V38.699Z" fill="#FFA101"/>
<path d="M40.644 28.906H38.658V33.941H40.644V28.906Z" fill="#FFA101"/>
</svg>
