<svg width="80" height="65" viewBox="0 0 80 65" fill="none" xmlns="http://www.w3.org/2000/svg">
<path d="M17.917 61.377C17.824 61.736 17.742 62.06 17.655 62.382C17.5804 62.758 17.4276 63.1141 17.2065 63.4272C16.9854 63.7403 16.7009 64.0035 16.3715 64.1995C16.0422 64.3956 15.6752 64.5201 15.2946 64.5652C14.9139 64.6103 14.528 64.5748 14.162 64.461C10.2493 63.4803 6.34 62.4877 2.434 61.483C2.06816 61.4064 1.72188 61.2557 1.41647 61.0402C1.11106 60.8247 0.852987 60.549 0.658137 60.23C0.463288 59.9111 0.335786 59.5556 0.283481 59.1855C0.231176 58.8154 0.255175 58.4385 0.354 58.078C0.467 57.578 0.602 57.078 0.74 56.588C0.764586 56.4298 0.822098 56.2784 0.908821 56.1438C0.995543 56.0091 1.10955 55.8942 1.24347 55.8064C1.37738 55.7185 1.52824 55.6598 1.68629 55.6339C1.84433 55.608 2.00605 55.6155 2.161 55.656C2.31026 55.6991 2.44914 55.7722 2.56912 55.8708C2.68911 55.9695 2.78767 56.0916 2.85874 56.2298C2.92982 56.3679 2.97192 56.5191 2.98245 56.6741C2.99298 56.8291 2.97173 56.9846 2.92 57.131C2.827 57.531 2.72 57.921 2.626 58.316C2.443 59.06 2.508 59.173 3.234 59.358C4.41667 59.6594 5.59967 59.9594 6.783 60.258C9.367 60.914 11.951 61.5693 14.535 62.224C15.201 62.392 15.335 62.313 15.509 61.648C16.7257 56.8647 17.9403 52.081 19.153 47.297C19.7237 45.0504 20.2957 42.804 20.869 40.558C21.039 39.889 20.958 39.758 20.288 39.589C16.4993 38.6257 12.7103 37.6624 8.921 36.699C8.283 36.537 8.147 36.614 7.983 37.258C6.82033 41.818 5.65967 46.3784 4.501 50.939C4.462 51.093 4.431 51.251 4.382 51.402C4.30062 51.6864 4.1116 51.9279 3.85506 52.0753C3.59852 52.2226 3.29466 52.2641 3.008 52.191C2.86592 52.1547 2.73242 52.0906 2.61521 52.0025C2.49799 51.9144 2.39936 51.8039 2.325 51.6775C2.25065 51.5511 2.20203 51.4112 2.18195 51.2659C2.16187 51.1207 2.17072 50.9729 2.208 50.831C2.528 49.507 2.874 48.189 3.208 46.869C4.08467 43.4224 4.96233 39.9764 5.841 36.531C5.91337 36.1595 6.06305 35.8074 6.28031 35.4974C6.49758 35.1875 6.77758 34.9267 7.10214 34.732C7.4267 34.5373 7.78858 34.413 8.16429 34.3672C8.54 34.3213 8.92115 34.355 9.283 34.466C13.231 35.4514 17.1753 36.4514 21.116 37.466C21.4754 37.5495 21.8141 37.7052 22.1114 37.9237C22.4087 38.1422 22.6585 38.4188 22.8456 38.7368C23.0327 39.0549 23.1531 39.4076 23.1996 39.7736C23.2461 40.1397 23.2176 40.5113 23.116 40.866C23.0127 41.2412 22.9507 41.6264 22.931 42.015C23.078 41.915 23.231 41.824 23.372 41.715C24.025 41.228 24.672 40.729 25.326 40.248C26.3458 39.4547 27.5454 38.9251 28.8187 38.706C30.092 38.487 31.3997 38.5852 32.626 38.992C38.5433 40.8107 44.4567 42.6414 50.366 44.484C51.5014 44.781 52.4817 45.4979 53.1088 46.4899C53.7358 47.4819 53.9629 48.675 53.744 49.828C53.6317 50.4534 53.3905 51.0486 53.0358 51.5757C52.6811 52.1028 52.2206 52.5504 51.6836 52.89C51.1466 53.2296 50.5448 53.4538 49.9165 53.5483C49.2882 53.6428 48.6471 53.6056 48.034 53.439C45.667 52.776 43.328 52.015 40.977 51.296C37.9323 50.3627 34.8883 49.4294 31.845 48.496C31.059 48.254 30.707 47.681 30.929 47.03C30.9755 46.8815 31.0526 46.7444 31.1553 46.6275C31.2581 46.5106 31.3842 46.4165 31.5256 46.3514C31.6669 46.2863 31.8203 46.2516 31.976 46.2494C32.1316 46.2473 32.2859 46.2778 32.429 46.339C34.158 46.853 35.883 47.382 37.611 47.902C41.252 49.002 44.911 50.054 48.527 51.215C49.1156 51.3785 49.7443 51.3135 50.287 51.0329C50.8296 50.7522 51.2462 50.2769 51.453 49.702C51.5522 49.4022 51.59 49.0855 51.564 48.7707C51.5381 48.456 51.4489 48.1497 51.3019 47.8702C51.1549 47.5908 50.953 47.3438 50.7083 47.1441C50.4637 46.9444 50.1813 46.7961 49.878 46.708C47.633 46.008 45.378 45.326 43.131 44.637C39.3083 43.4684 35.4857 42.2997 31.663 41.131C30.8689 40.866 30.0226 40.7966 29.196 40.9288C28.3694 41.0609 27.5869 41.3907 26.915 41.89C25.3 43.04 23.731 44.255 22.161 45.466C21.9728 45.6451 21.844 45.8775 21.792 46.132C20.804 49.9694 19.8243 53.809 18.853 57.651C18.728 58.143 18.607 58.636 18.46 59.224C19.953 59.624 21.376 60.045 22.816 60.394C25.3783 60.9468 27.9851 61.2678 30.605 61.353C34.512 61.578 38.417 61.826 42.324 62.06C45.63 62.26 48.936 62.448 52.242 62.653C52.9355 62.6976 53.623 62.5 54.187 62.094C61.5457 57.052 68.9067 52.014 76.27 46.98C76.6474 46.7594 76.9569 46.4395 77.165 46.0551C77.3731 45.6707 77.4717 45.2366 77.45 44.8C77.4428 44.3614 77.3075 43.9345 77.061 43.5717C76.8144 43.209 76.4672 42.9261 76.062 42.758C75.7161 42.5936 75.3346 42.5183 74.9522 42.5387C74.5697 42.5591 74.1984 42.6747 73.872 42.875C68.566 45.897 63.2603 48.9197 57.955 51.943C57.847 52.005 57.744 52.074 57.632 52.126C57.394 52.2521 57.1164 52.2808 56.8577 52.2062C56.5989 52.1316 56.3793 51.9594 56.245 51.726C56.1011 51.4987 56.0534 51.2235 56.1122 50.961C56.1711 50.6985 56.3318 50.4701 56.559 50.326C57.318 49.839 58.106 49.397 58.887 48.944C62.762 46.698 66.654 44.483 70.502 42.192C70.9729 41.9587 71.3871 41.6251 71.7153 41.2146C72.0436 40.8041 72.2779 40.3268 72.402 39.816C72.5013 39.3259 72.441 38.8168 72.2301 38.3634C72.0192 37.91 71.6687 37.536 71.2299 37.2961C70.7911 37.0562 70.287 36.9631 69.7915 37.0304C69.2959 37.0977 68.835 37.3218 68.476 37.67C67.099 39.023 65.748 40.402 64.386 41.77C62.4793 43.6907 60.5703 45.611 58.659 47.531C58.5598 47.6569 58.4357 47.7608 58.2943 47.8362C58.1529 47.9116 57.9975 47.9569 57.8377 47.9692C57.678 47.9816 57.5174 47.9606 57.3662 47.9077C57.2149 47.8549 57.0763 47.7712 56.959 47.662C56.8385 47.5562 56.7416 47.4262 56.6747 47.2804C56.6078 47.1346 56.5723 46.9764 56.5706 46.816C56.5689 46.6557 56.601 46.4967 56.6649 46.3496C56.7287 46.2024 56.8228 46.0704 56.941 45.962C58.102 44.625 59.274 43.297 60.441 41.962C60.698 41.669 60.963 41.383 61.211 41.082C61.5091 40.7467 61.6631 40.3076 61.6399 39.8596C61.6167 39.4116 61.4181 38.9907 61.087 38.688C60.772 38.3799 60.3478 38.2091 59.9072 38.2131C59.4666 38.217 59.0454 38.3953 58.736 38.709C57.765 39.641 56.83 40.609 55.878 41.562C55.753 41.687 55.629 41.814 55.498 41.934C55.3964 42.0476 55.2727 42.1392 55.1344 42.2034C54.9962 42.2677 54.8464 42.3031 54.6941 42.3075C54.5417 42.312 54.3901 42.2854 54.2484 42.2293C54.1066 42.1733 53.9778 42.089 53.8697 41.9816C53.7616 41.8742 53.6765 41.7459 53.6196 41.6045C53.5627 41.4631 53.5351 41.3116 53.5386 41.1593C53.5421 41.0069 53.5765 40.8569 53.6399 40.7183C53.7032 40.5797 53.7941 40.4554 53.907 40.353C55.019 39.211 56.107 38.044 57.288 36.972C57.7789 36.5335 58.3712 36.224 59.0116 36.0715C59.652 35.919 60.3202 35.9283 60.9561 36.0985C61.592 36.2688 62.1755 36.5946 62.654 37.0467C63.1325 37.4988 63.4909 38.0628 63.697 38.688C63.736 38.804 63.777 38.919 63.869 39.188C64.354 38.664 64.769 38.195 65.21 37.743C65.765 37.171 66.326 36.604 66.9 36.052C67.5898 35.3865 68.4692 34.9517 69.4168 34.8076C70.3644 34.6636 71.3334 34.8175 72.1897 35.2479C73.0461 35.6784 73.7476 36.3643 74.1973 37.2107C74.647 38.0572 74.8226 39.0224 74.7 39.973C74.69 40.058 74.688 40.145 74.682 40.241C75.144 40.2652 75.6041 40.3166 76.06 40.395C76.9418 40.5844 77.7489 41.0278 78.3817 41.6705C79.0146 42.3132 79.4454 43.127 79.6212 44.0117C79.797 44.8964 79.7099 45.8131 79.3708 46.6489C79.0318 47.4847 78.4554 48.2029 77.713 48.715C71.768 52.815 65.798 56.885 59.838 60.966C58.114 62.146 56.388 63.323 54.672 64.515C54.1973 64.863 53.6154 65.033 53.028 64.995C50.4127 64.8277 47.7973 64.664 45.182 64.504C42.582 64.345 39.982 64.204 37.382 64.034C33.672 63.795 29.957 63.596 26.254 63.271C23.5048 62.9888 20.7983 62.3846 18.19 61.471L17.914 61.38" fill="#FFA101"/>
<path d="M63.003 20.593C61.7426 23.3974 59.8685 25.8829 57.519 27.866C56.312 28.957 55.066 30.011 53.78 31.007C51.2436 32.9677 48.5372 34.6979 45.693 36.177C45.2 36.4785 44.6339 36.6393 44.0561 36.642C43.4783 36.6446 42.9107 36.489 42.415 36.192C40.996 35.366 39.57 34.552 38.164 33.704C37.203 33.123 36.245 32.531 35.334 31.877C32.3103 29.8647 29.5964 27.422 27.278 24.626C26.4967 23.5131 25.7766 22.3584 25.121 21.167C25.021 21.003 24.952 20.819 24.844 20.593H23.959C22.4 20.593 20.842 20.599 19.283 20.593C19.016 20.6251 18.7465 20.5574 18.5263 20.4029C18.3061 20.2484 18.1507 20.0181 18.09 19.756C18.0469 19.5922 18.0433 19.4205 18.0793 19.2549C18.1154 19.0894 18.1901 18.9347 18.2974 18.8036C18.4047 18.6725 18.5415 18.5687 18.6967 18.5006C18.8518 18.4326 19.0209 18.4022 19.19 18.412C20.501 18.399 21.811 18.412 23.122 18.412H24.094C24.0695 18.2202 24.0341 18.0299 23.988 17.842C23.4377 15.9149 23.2639 13.8999 23.476 11.907C23.6371 9.52292 24.5376 7.24836 26.052 5.40002C27.018 4.19373 28.2149 3.19213 29.5725 2.45381C30.9302 1.71549 32.4214 1.25526 33.959 1.10002C35.7206 0.859449 37.5138 1.01584 39.2072 1.55775C40.9006 2.09967 42.4513 3.01338 43.746 4.23202C43.81 4.29002 43.885 4.33202 43.969 4.39802C45.1317 3.29547 46.4936 2.4243 47.982 1.83102C50.4941 0.850333 53.262 0.737814 55.8454 1.51136C58.4288 2.28492 60.6793 3.90011 62.239 6.10002C63.9983 8.49655 64.7947 11.4658 64.471 14.421C64.336 15.734 64.111 17.038 63.918 18.409H64.378C65.812 18.409 67.247 18.399 68.678 18.414C68.8263 18.4086 68.9741 18.4336 69.1124 18.4873C69.2507 18.5411 69.3765 18.6225 69.4823 18.7266C69.588 18.8307 69.6713 18.9552 69.7272 19.0927C69.7831 19.2301 69.8104 19.3775 69.8073 19.5258C69.8042 19.6742 69.7709 19.8203 69.7094 19.9553C69.6479 20.0903 69.5594 20.2114 69.4495 20.311C69.3395 20.4106 69.2104 20.4868 69.07 20.5347C68.9296 20.5827 68.7809 20.6015 68.633 20.59C66.968 20.597 65.303 20.59 63.638 20.59H62.999L63.003 20.593ZM61.437 18.405C62.2219 16.1047 62.4438 13.6498 62.084 11.246C61.6635 9.21266 60.6225 7.35984 59.1046 5.94309C57.5866 4.52634 55.6665 3.61544 53.609 3.33602C51.9392 3.11513 50.2407 3.33244 48.6803 3.96659C47.1199 4.60074 45.7513 5.62993 44.709 6.95302C44.463 7.24202 44.216 7.52902 43.948 7.84302L43.159 6.90002C42.2135 5.69649 40.9939 4.73647 39.602 4.10002C37.8843 3.36594 36.0028 3.10025 34.149 3.33002C32.2814 3.54885 30.5195 4.31292 29.0835 5.52687C27.6474 6.74082 26.6007 8.35087 26.074 10.156C25.5452 12.1875 25.4956 14.3141 25.929 16.368C26.058 17.054 26.253 17.728 26.417 18.406H27.042C30.6733 18.406 34.305 18.406 37.937 18.406C38.798 18.406 39.102 18.642 39.337 19.472C39.45 19.867 39.566 20.261 39.713 20.765C39.793 20.51 39.837 20.377 39.876 20.242C40.8193 16.9794 41.7633 13.717 42.708 10.455C42.908 9.78102 43.308 9.46602 43.869 9.50402C44.43 9.54202 44.763 9.88502 44.903 10.538C45.8183 14.812 46.7323 19.086 47.645 23.36C47.725 23.735 47.816 24.108 47.902 24.482C48.46 22.802 48.923 21.134 49.393 19.467C49.63 18.625 49.923 18.408 50.793 18.407H61.436L61.437 18.405ZM27.495 20.621L27.395 20.732C27.764 21.332 28.114 21.94 28.507 22.522C29.5563 24.0183 30.8052 25.3641 32.219 26.522C33.7943 27.8634 35.409 29.158 37.063 30.406C38.0048 31.0804 38.9858 31.6982 40.001 32.256C41.211 32.956 42.455 33.604 43.673 34.293C43.8089 34.3771 43.9662 34.42 44.126 34.4164C44.2857 34.4129 44.441 34.363 44.573 34.273L46.085 33.405C49.7926 31.3183 53.236 28.7936 56.341 25.885C57.8953 24.5082 59.2143 22.8869 60.246 21.085C60.322 20.941 60.383 20.79 60.466 20.61H51.376C51.307 20.835 51.234 21.051 51.176 21.271C50.422 23.981 49.6683 26.6914 48.915 29.402C48.8762 29.6865 48.7331 29.9465 48.5133 30.1313C48.2936 30.3161 48.0129 30.4126 47.726 30.402C47.172 30.367 46.819 30.002 46.674 29.317C45.89 25.631 45.1053 21.945 44.32 18.259C44.113 17.287 43.899 16.317 43.688 15.346C43.5923 15.4386 43.525 15.5565 43.494 15.686C42.604 18.762 41.714 21.8374 40.824 24.912C40.624 25.589 40.243 25.901 39.673 25.884C39.134 25.868 38.785 25.544 38.596 24.884C38.309 23.884 38.026 22.876 37.738 21.873C37.617 21.453 37.488 21.036 37.363 20.621H27.495Z" fill="#FFA101"/>
</svg>
