<svg width="75" height="72" viewBox="0 0 75 72" fill="none" xmlns="http://www.w3.org/2000/svg">
<path d="M70.199 64.732H70.126C68.9352 64.6751 67.7685 64.3764 66.697 63.854C65.2257 63.1645 63.848 62.2909 62.597 61.254C60.697 59.727 59.01 58.323 57.452 56.96C55.103 54.906 53.259 53.399 51.471 52.076C49.0878 50.2739 46.4836 48.7844 43.722 47.644C41.7565 46.8171 39.6792 46.2863 37.558 46.069C36.951 46.014 36.345 45.956 35.716 45.897L33.932 45.729V19.064L34.784 18.964C34.954 18.945 35.12 18.923 35.284 18.902C35.646 18.855 36.021 18.802 36.402 18.784C39.4457 18.5766 42.4217 17.7895 45.17 16.465C47.6238 15.2977 49.9451 13.8702 52.094 12.207C53.263 11.321 54.419 10.356 55.536 9.42198L56.296 8.78798C57.107 8.11398 57.927 7.42098 58.721 6.75098C60.121 5.56598 61.575 4.34098 63.034 3.16598C64.3664 2.06262 65.8694 1.18316 67.484 0.56198C68.3318 0.224707 69.2311 0.0349701 70.143 0.000980359H70.178C70.5434 -0.00614136 70.9034 0.08967 71.2169 0.277466C71.5304 0.465262 71.7848 0.737469 71.951 1.06298C72.4724 2.03209 72.8133 3.08792 72.957 4.17898C73.242 5.89798 73.487 7.66098 73.706 9.56898C73.867 10.969 73.964 12.388 74.058 13.761L74.077 14.032C74.125 14.732 74.161 15.447 74.196 16.132C74.232 16.856 74.27 17.605 74.322 18.332C74.528 21.223 74.555 24.094 74.568 27.278C74.568 28.469 74.594 29.678 74.614 30.856C74.637 32.203 74.662 33.596 74.662 34.97C74.662 36.683 74.619 38.419 74.578 40.097C74.5673 40.537 74.5567 40.977 74.546 41.417C74.52 42.532 74.472 43.66 74.427 44.617C74.4116 44.9536 74.3967 45.2906 74.382 45.628C74.325 46.912 74.266 48.241 74.175 49.551C74.018 51.815 73.87 53.557 73.695 55.199C73.5134 57.4651 73.1455 59.7123 72.595 61.918C72.4342 62.4589 72.2381 62.9887 72.008 63.504L71.988 63.551C71.8467 63.9076 71.5985 64.2118 71.2775 64.4218C70.9565 64.6318 70.5783 64.7373 70.195 64.724L70.199 64.732ZM35.858 43.971H35.899C36.526 44.03 37.129 44.088 37.733 44.142C40.0421 44.3762 42.3038 44.9518 44.444 45.85C47.3569 47.0512 50.1039 48.6206 52.618 50.52C54.449 51.876 56.331 53.412 58.718 55.502C60.255 56.847 61.918 58.234 63.8 59.743C64.9259 60.682 66.1665 61.4743 67.492 62.101C68.3318 62.5157 69.2468 62.7562 70.182 62.808H70.22L70.238 62.765C70.435 62.3262 70.6036 61.8753 70.743 61.415C71.263 59.3088 71.6104 57.1637 71.782 55.001C71.954 53.383 72.1 51.663 72.256 49.423C72.345 48.137 72.404 46.823 72.456 45.548C72.4713 45.21 72.4867 44.8716 72.502 44.533C72.546 43.587 72.594 42.472 72.619 41.377C72.629 40.9356 72.6396 40.4943 72.651 40.053C72.692 38.386 72.735 36.663 72.735 34.974C72.735 33.617 72.711 32.232 72.688 30.894C72.667 29.714 72.646 28.494 72.641 27.294C72.628 24.145 72.601 21.309 72.4 18.477C72.346 17.727 72.308 16.968 72.271 16.234C72.237 15.554 72.201 14.851 72.154 14.165L72.135 13.894C72.042 12.543 71.947 11.146 71.791 9.79398C71.576 7.91798 71.335 6.18598 71.055 4.49898C70.9455 3.63658 70.6834 2.80055 70.281 2.02998C70.262 1.99454 70.2395 1.96105 70.214 1.92998H70.166C69.4741 1.95757 68.7924 2.1065 68.152 2.36998C66.7315 2.91989 65.4096 3.69665 64.238 4.66998C62.797 5.82998 61.355 7.04798 59.96 8.22598C59.16 8.89798 58.34 9.59398 57.524 10.273L56.768 10.904C55.633 11.852 54.46 12.832 53.255 13.746C50.9972 15.4921 48.5582 16.9904 45.98 18.215C43.0136 19.6441 39.8012 20.4927 36.516 20.715C36.302 20.728 36.082 20.752 35.855 20.779L35.858 43.971Z" fill="#FFA101"/>
<path d="M14.631 45.852C13.1431 45.8478 11.7172 45.2558 10.6638 44.205C9.6104 43.1543 9.01489 41.7298 9.00698 40.242C8.99698 35.358 8.99598 30.206 9.00198 24.491C9.01475 23.0108 9.60803 21.5947 10.6542 20.5474C11.7003 19.5001 13.1158 18.9053 14.596 18.891C18.859 18.885 23.196 18.891 27.383 18.891H29.805C29.987 18.891 30.158 18.905 30.325 18.918L30.553 18.935L31.453 18.993V45.749L30.543 45.799L30.29 45.815C30.104 45.828 29.929 45.84 29.74 45.84C28.174 45.84 26.6073 45.84 25.04 45.84C21.64 45.84 18.116 45.834 14.655 45.853L14.631 45.852ZM20.857 20.813C18.77 20.813 16.676 20.813 14.598 20.813C13.6281 20.828 12.7022 21.2202 12.0167 21.9065C11.3311 22.5927 10.9399 23.5191 10.926 24.489C10.92 30.202 10.926 35.352 10.931 40.234C10.9332 40.5501 10.9758 40.8647 11.058 41.17C11.2823 41.9498 11.7499 42.6375 12.3927 43.1328C13.0355 43.6281 13.8197 43.9049 14.631 43.923H14.647C18.113 43.905 21.637 43.908 25.047 43.91H29.531V20.81H27.385H20.861" fill="#FFA101"/>
<path d="M36.583 71.984C36.14 71.9761 35.7101 71.8319 35.352 71.571C35.0606 71.3628 34.7888 71.1285 34.54 70.871L33.263 69.595C28.441 64.778 23.455 59.795 18.563 54.882C18.284 54.602 18.142 54.592 17.957 54.608C17.5453 54.6371 17.1323 54.6424 16.72 54.624L16.471 54.618C15.7657 54.6158 15.0901 54.3343 14.5921 53.8349C14.094 53.3356 13.8142 52.6592 13.814 51.954C13.802 51.029 13.807 50.093 13.814 49.187V48.692C13.8168 48.5402 13.8302 48.3889 13.854 48.239C13.861 48.186 13.869 48.129 13.876 48.067L13.976 47.213H32.116L32.173 48.113C32.178 48.193 32.184 48.268 32.19 48.341C32.203 48.514 32.216 48.677 32.217 48.855C32.217 49.155 32.217 49.464 32.217 49.769C32.217 50.269 32.217 50.794 32.227 51.298C32.2345 51.8843 32.4297 52.4527 32.784 52.92C32.9881 53.1547 33.241 53.3421 33.5249 53.4692C33.8088 53.5963 34.1169 53.66 34.428 53.656C34.544 53.668 34.673 53.673 34.821 53.679L35.077 53.69L35.877 53.731L35.984 54.522C36.005 54.677 36.025 54.829 36.044 54.978C36.085 55.292 36.123 55.588 36.168 55.878C36.355 57.092 37.02 57.65 38.39 57.742C38.557 57.753 38.725 57.761 38.901 57.769L39.909 57.818L40.061 58.546C40.079 58.631 40.096 58.712 40.113 58.789C40.152 58.968 40.19 59.138 40.219 59.32C40.2725 59.6579 40.4125 59.9763 40.6254 60.2442C40.8383 60.5121 41.1168 60.7205 41.434 60.849C41.709 60.988 41.991 61.116 42.29 61.249C42.469 61.33 42.647 61.411 42.825 61.495C43.6077 61.784 44.2544 62.3545 44.639 63.095C44.7866 63.3862 44.8479 63.7136 44.8156 64.0385C44.7834 64.3635 44.659 64.6724 44.457 64.929L44.423 64.973C44.1962 65.28 43.95 65.5723 43.686 65.848C42.106 67.439 40.492 69.054 38.751 70.783C38.4733 71.0547 38.1754 71.3051 37.86 71.532C37.4955 71.8139 37.0497 71.9706 36.589 71.979L36.583 71.984ZM18.047 52.679C18.403 52.6816 18.7546 52.7581 19.0796 52.9036C19.4045 53.049 19.6958 53.2603 19.935 53.524C24.823 58.436 29.809 63.417 34.63 68.233L35.907 69.509C36.0744 69.6836 36.2568 69.8432 36.452 69.986C36.4943 70.019 36.542 70.0444 36.593 70.061C36.6393 70.0394 36.6832 70.0129 36.724 69.982C36.9613 69.812 37.1857 69.6245 37.395 69.421C39.132 67.695 40.743 66.083 42.32 64.495C42.5139 64.2905 42.6952 64.0744 42.863 63.848C42.6454 63.5629 42.3461 63.3508 42.005 63.24C41.836 63.16 41.666 63.083 41.495 63.006C41.195 62.868 40.877 62.726 40.565 62.568C39.982 62.306 39.4726 61.9043 39.0819 61.3984C38.6912 60.8926 38.4312 60.2982 38.325 59.668H38.26C37.2792 59.6876 36.3263 59.3407 35.5877 58.6951C34.8491 58.0495 34.3778 57.1516 34.266 56.177C34.234 55.977 34.207 55.772 34.179 55.567C33.6154 55.5403 33.0637 55.395 32.5601 55.1407C32.0564 54.8863 31.6121 54.5287 31.256 54.091C30.6547 53.3045 30.3213 52.3459 30.305 51.356C30.29 50.82 30.292 50.282 30.294 49.763C30.294 49.555 30.294 49.347 30.294 49.139H15.74V49.197C15.74 50.097 15.732 51.022 15.74 51.931C15.7361 52.0332 15.7535 52.1351 15.7912 52.2302C15.8289 52.3254 15.8859 52.4116 15.9587 52.4834C16.0315 52.5553 16.1185 52.6112 16.2141 52.6477C16.3097 52.6841 16.4118 52.7002 16.514 52.695L16.774 52.702C17.1132 52.7179 17.4531 52.7149 17.792 52.693C17.878 52.685 17.961 52.682 18.042 52.682" fill="#FFA101"/>
<path d="M7.51898 41.331L6.28298 40.964L6.02998 40.891C5.84998 40.84 5.67898 40.791 5.50098 40.728C4.42631 40.3406 3.35231 39.9506 2.27898 39.558L1.54798 39.292C1.16284 39.2129 0.823075 38.9883 0.599512 38.6649C0.37595 38.3414 0.285844 37.9442 0.347979 37.556C0.347979 36.43 0.347979 35.304 0.347979 34.178C0.347979 31.84 0.347979 29.422 0.339979 27.045C0.316592 26.668 0.421604 26.2942 0.637893 25.9846C0.854181 25.675 1.16899 25.4478 1.53098 25.34C2.51798 24.995 3.51998 24.625 4.48898 24.268C4.94698 24.0993 5.40498 23.9326 5.86298 23.768C5.98423 23.7237 6.10948 23.6912 6.23698 23.671C6.27598 23.665 6.31998 23.657 6.37198 23.647L7.52098 23.419L7.51898 41.331ZM2.26898 37.507L2.93698 37.75C3.82231 38.0726 4.70798 38.3946 5.59398 38.716V25.916L5.15098 26.079C4.20698 26.427 3.23098 26.787 2.26098 27.127C2.26898 29.481 2.26898 31.871 2.26898 34.183C2.26898 35.2923 2.26898 36.4016 2.26898 37.511" fill="#FFA101"/>
</svg>
