<svg width="64" height="64" viewBox="0 0 64 64" fill="none" xmlns="http://www.w3.org/2000/svg">
<path d="M7.16199 38.739C8.09899 38.739 9.03999 38.792 9.97199 38.729C11.0436 38.714 12.0658 38.2755 12.8152 37.5094C13.5647 36.7433 13.9805 35.7117 13.972 34.64C14.043 32.769 14.04 30.89 13.972 29.018C14.0026 28.004 13.6384 27.0176 12.956 26.267C12.2736 25.5163 11.3264 25.0599 10.314 24.994C8.15564 24.8142 5.98632 24.8082 3.827 24.976C2.81298 25.0282 1.85795 25.4687 1.16008 26.2062C0.462217 26.9438 0.0750874 27.9216 0.0789979 28.937C-0.0230774 30.869 -0.0230774 32.805 0.0789979 34.737C0.105102 35.807 0.548567 36.8243 1.31465 37.5717C2.08074 38.3191 3.10871 38.7373 4.17899 38.737C5.17099 38.793 6.17 38.746 7.165 38.746V38.739H7.16199ZM3.922 28.715H10.104C10.3877 30.7746 10.3789 32.8639 10.078 34.921H3.922V28.715Z" fill="#FFA101"/>
<path d="M39.771 28.067C40.277 26.724 41.841 25.667 40.218 23.873C38.418 21.889 37.118 23.403 35.808 24.023C34.702 23.867 34.608 23.131 34.431 22.45C34.3531 22.0398 34.1783 21.6542 33.9211 21.3254C33.6639 20.9965 33.3318 20.7339 32.9525 20.5595C32.5732 20.3851 32.1576 20.304 31.7406 20.3229C31.3235 20.3417 30.917 20.4601 30.555 20.668C30.0619 21.0448 29.7114 21.5779 29.561 22.18C29.169 23.33 29.225 23.349 28.277 24.088C27.743 23.788 27.151 23.446 26.547 23.125C25.419 22.525 25.01 22.638 23.829 23.843C22.729 24.96 22.635 25.343 23.229 26.43C23.535 26.988 23.881 27.523 24.135 27.945C24.035 29.038 23.327 29.159 22.635 29.338C22.2115 29.4173 21.8135 29.5979 21.4748 29.8642C21.1362 30.1306 20.867 30.4749 20.6902 30.8678C20.5134 31.2607 20.4342 31.6906 20.4594 32.1207C20.4846 32.5508 20.6135 32.9684 20.835 33.338C21.2504 33.8013 21.8011 34.1221 22.409 34.255C23.535 34.634 23.55 34.587 24.19 35.585C23.49 36.985 21.976 38.301 23.978 40.085C25.745 41.657 26.84 40.214 28.017 39.666C29.231 39.718 29.305 40.538 29.493 41.266C29.5644 41.6789 29.7358 42.068 29.9921 42.3995C30.2484 42.731 30.5818 42.9948 30.9634 43.1679C31.3449 43.341 31.763 43.4183 32.1813 43.3928C32.5995 43.3674 33.0052 43.2401 33.363 43.022C33.8767 42.5836 34.2354 41.9913 34.386 41.333C34.759 40.233 34.699 40.217 35.738 39.601C37.105 40.201 38.338 41.764 40.138 39.901C41.864 38.109 40.338 36.957 39.799 35.701C39.85 34.601 40.606 34.519 41.277 34.332C43.228 33.787 43.858 32.622 43.297 30.686C43.041 29.803 42.352 29.572 41.589 29.393C40.869 29.224 40.021 29.243 39.777 28.072L39.771 28.067ZM31.099 41.246C30.518 40.008 30.636 38.715 29.273 38.146C27.813 37.531 27.039 38.91 25.524 39.146L24.561 38.256C24.954 36.722 26.223 35.931 25.602 34.463C24.995 33.028 23.502 33.37 22.502 32.618V30.974C23.624 30.374 25.045 30.59 25.625 29.139C26.205 27.688 24.868 26.902 24.635 25.616L25.778 24.523C29.17 26.232 29.661 26.423 31.178 22.374H32.739C34.118 26.267 34.698 26.317 38.152 24.51L39.321 25.76C38.793 27.013 37.693 27.86 38.346 29.307C38.975 30.707 40.535 30.257 41.498 31.183C41.478 31.627 41.457 32.131 41.437 32.583C37.037 34.351 37.73 34.909 39.392 38.22L38.375 39.182C36.88 38.871 36.095 37.568 34.635 38.14C33.175 38.712 33.435 40.17 32.763 41.249L31.099 41.246Z" fill="#FFA101"/>
<path d="M57.106 13.806C58.042 13.806 58.979 13.846 59.912 13.798C60.9519 13.8152 61.9565 13.4211 62.7073 12.7014C63.458 11.9817 63.8943 10.9947 63.921 9.955C64.0255 7.91133 64.0255 5.86366 63.921 3.82C63.9108 2.83715 63.5177 1.89704 62.8253 1.19942C62.1329 0.501793 61.1957 0.101645 60.213 0.0839982C58.1108 -0.0266316 56.0044 -0.0283005 53.902 0.0789982C52.919 0.0859676 51.9778 0.477876 51.2803 1.17068C50.5828 1.86348 50.1846 2.80201 50.171 3.785C50.0577 5.88654 50.0601 7.99272 50.178 10.094C50.221 11.0728 50.6347 11.9985 51.3352 12.6834C52.0357 13.3683 52.9705 13.7611 53.95 13.782C54.997 13.855 56.05 13.795 57.106 13.795V13.806ZM53.884 3.765C55.9894 3.5094 58.12 3.54709 60.215 3.877C60.4595 5.91171 60.4437 7.96928 60.168 10C58.0855 10.3252 55.9648 10.3198 53.884 9.984V3.765Z" fill="#FFA101"/>
<path d="M57.027 25.018C55.975 25.018 54.917 24.945 53.871 25.033C52.891 25.0604 51.9593 25.4649 51.27 26.1622C50.5808 26.8594 50.1871 27.7957 50.171 28.776C50.0639 30.8199 50.0619 32.8679 50.165 34.912C50.1658 35.9241 50.5672 36.8948 51.2815 37.6119C51.9958 38.329 52.9649 38.7342 53.977 38.739C56.0209 38.8465 58.0691 38.8465 60.113 38.739C61.1256 38.7231 62.0916 38.3109 62.8039 37.591C63.5161 36.8711 63.9179 35.9007 63.923 34.888C64.0242 32.8439 64.0218 30.7959 63.916 28.752C63.8898 27.7702 63.4869 26.8361 62.7909 26.1432C62.0948 25.4503 61.1589 25.0517 60.177 25.03C59.133 24.944 58.077 25.015 57.022 25.015L57.027 25.018ZM60.185 28.709C60.4794 30.8041 60.4497 32.932 60.097 35.018C58.0042 35.2847 55.885 35.2669 53.797 34.965C53.6079 32.8809 53.6683 30.7817 53.977 28.712L60.185 28.709Z" fill="#FFA101"/>
<path d="M57.01 63.836C58.004 63.836 59.001 63.887 59.991 63.826C60.5066 63.8337 61.0185 63.7387 61.497 63.5464C61.9755 63.3542 62.4109 63.0686 62.7778 62.7063C63.1447 62.344 63.4359 61.9123 63.6342 61.4363C63.8325 60.9603 63.9341 60.4496 63.933 59.934C64.022 57.95 64.026 55.955 63.927 53.973C63.922 53.4574 63.8154 52.9479 63.6132 52.4736C63.4111 51.9993 63.1173 51.5696 62.7488 51.209C62.3803 50.8484 61.9443 50.564 61.4658 50.3722C60.9872 50.1803 60.4755 50.0848 59.96 50.091C58.034 50.016 56.1 50.019 54.173 50.091C53.6426 50.0771 53.115 50.1709 52.6219 50.3666C52.1288 50.5624 51.6806 50.8561 51.3042 51.2299C50.9278 51.6038 50.6311 52.0501 50.432 52.5418C50.233 53.0336 50.1356 53.5606 50.146 54.091C50.062 56.017 50.06 57.952 50.146 59.877C50.1382 60.4075 50.2386 60.934 50.441 61.4244C50.6434 61.9148 50.9436 62.3588 51.3232 62.7294C51.7028 63.1001 52.1539 63.3895 52.649 63.5801C53.1441 63.7707 53.6728 63.8584 54.203 63.838C55.136 63.886 56.073 63.846 57.009 63.846V63.84L57.01 63.836ZM53.909 60.135C53.604 58.0516 53.6229 55.9336 53.965 53.856C56.0298 53.5708 58.1245 53.5792 60.187 53.881V60.064C58.1037 60.3239 55.9977 60.348 53.909 60.136" fill="#FFA101"/>
<path d="M38.77 19.529C39.135 20.169 39.648 20.319 40.248 19.706C40.5161 19.3959 40.7483 19.0564 40.94 18.694C42.9727 15.3373 45 11.9777 47.022 8.615C47.399 7.984 47.987 7.387 47.628 6.527C47.5389 6.40544 47.4187 6.3102 47.28 6.25137C47.1412 6.19254 46.9892 6.1723 46.8399 6.19279C46.6906 6.21329 46.5496 6.27375 46.4319 6.36779C46.3141 6.46183 46.224 6.58594 46.171 6.727C43.677 10.891 41.216 15.074 38.748 19.255C38.724 19.295 38.755 19.369 38.771 19.528" fill="#FFA101"/>
<path d="M38.543 44.072C41.265 48.637 43.824 53.167 46.706 57.418C47.932 56.953 47.847 56.341 47.536 55.709C47.278 55.185 46.954 54.694 46.651 54.193C44.683 50.935 42.726 47.671 40.737 44.425C39.982 43.192 39.885 43.196 38.543 44.073" fill="#FFA101"/>
<path d="M45.862 31.292C45.574 32.236 45.895 32.669 46.683 32.699C47.471 32.729 47.783 32.283 47.648 31.292H45.862Z" fill="#FFA101"/>
<path d="M17.985 31.055L16.242 31.427C16.236 32.579 16.789 32.813 17.508 32.691C18.227 32.569 18.478 32.114 17.986 31.055" fill="#FFA101"/>
<path d="M31.9 28.873C31.5044 28.8714 31.1124 28.9484 30.7468 29.0994C30.3812 29.2505 30.0492 29.4727 29.7701 29.7531C29.491 30.0334 29.2704 30.3665 29.121 30.7328C28.9717 31.0991 28.8965 31.4914 28.9 31.887C28.8905 32.4972 29.0636 33.0963 29.397 33.6074C29.7305 34.1185 30.209 34.5183 30.7713 34.7555C31.3335 34.9928 31.9538 35.0566 32.5526 34.9388C33.1514 34.821 33.7013 34.527 34.1318 34.0945C34.5623 33.662 34.8537 33.1107 34.9687 32.5114C35.0837 31.9121 35.017 31.292 34.7772 30.7309C34.5373 30.1698 34.1353 29.6931 33.6226 29.3621C33.11 29.031 32.5101 28.8607 31.9 28.873V28.873ZM30.711 31.954C30.7018 31.7918 30.7248 31.6295 30.7786 31.4762C30.8324 31.323 30.916 31.1819 31.0246 31.061C31.1331 30.9402 31.2645 30.8421 31.4111 30.7722C31.5578 30.7023 31.7168 30.6622 31.879 30.654C32.0384 30.6372 32.1996 30.653 32.3527 30.7003C32.5059 30.7476 32.6478 30.8255 32.77 30.9293C32.8922 31.033 32.9921 31.1605 33.0636 31.304C33.1351 31.4475 33.1767 31.604 33.186 31.764C33.2059 31.9365 33.1886 32.1113 33.1352 32.2766C33.0819 32.4419 32.9937 32.5938 32.8767 32.7221C32.7596 32.8504 32.6164 32.9521 32.4567 33.0204C32.2971 33.0887 32.1246 33.122 31.951 33.118C31.6356 33.1203 31.3314 33.0013 31.1013 32.7855C30.8712 32.5698 30.7329 32.2739 30.715 31.959" fill="#FFA101"/>
</svg>
