<svg width="82" height="66" viewBox="0 0 82 66" fill="none" xmlns="http://www.w3.org/2000/svg">
<path d="M65 49H57V45H25V49H17V45H1V65H81V45H65V49Z" stroke="#FFA101" stroke-width="2"/>
<path d="M73 17H61V9C60.9937 6.88022 60.1488 4.84906 58.6499 3.35014C57.1509 1.85122 55.1198 1.00633 53 1H29C26.8802 1.00633 24.8491 1.85122 23.3501 3.35014C21.8512 4.84906 21.0063 6.88022 21 9V17H9C6.88022 17.0063 4.84906 17.8512 3.35014 19.3501C1.85122 20.8491 1.00633 22.8802 1 25V41H17V33H25V41H57V33H65V41H81V25C80.9937 22.8802 80.1488 20.8491 78.6499 19.3501C77.1509 17.8512 75.1198 17.0063 73 17V17ZM53 17H29V9H53V17Z" stroke="#FFA101" stroke-width="2"/>
</svg>
