<svg width="286" height="33" viewBox="0 0 286 33" fill="none" xmlns="http://www.w3.org/2000/svg">
<path d="M135.605 18.71C135.605 18.746 135.578 19.169 135.524 19.979H124.886C125.102 20.735 125.516 21.32 126.128 21.734C126.758 22.13 127.541 22.328 128.477 22.328C129.179 22.328 129.782 22.229 130.286 22.031C130.808 21.833 131.33 21.509 131.852 21.059L134.552 23.867C133.13 25.451 131.051 26.243 128.315 26.243C126.605 26.243 125.102 25.919 123.806 25.271C122.51 24.623 121.502 23.723 120.782 22.571C120.08 21.419 119.729 20.114 119.729 18.656C119.729 17.216 120.071 15.929 120.755 14.795C121.457 13.643 122.42 12.743 123.644 12.095C124.868 11.447 126.245 11.123 127.775 11.123C129.233 11.123 130.556 11.429 131.744 12.041C132.932 12.635 133.868 13.508 134.552 14.66C135.254 15.794 135.605 17.144 135.605 18.71ZM127.802 14.768C127.01 14.768 126.344 14.993 125.804 15.443C125.282 15.893 124.949 16.505 124.805 17.279H130.799C130.655 16.505 130.313 15.893 129.773 15.443C129.251 14.993 128.594 14.768 127.802 14.768ZM146.475 20.978H143.559V26H138.213V7.1H146.853C148.563 7.1 150.048 7.388 151.308 7.964C152.568 8.522 153.54 9.332 154.224 10.394C154.908 11.438 155.25 12.671 155.25 14.093C155.25 15.461 154.926 16.658 154.278 17.684C153.648 18.692 152.739 19.484 151.551 20.06L155.628 26H149.904L146.475 20.978ZM149.85 14.093C149.85 13.211 149.571 12.527 149.013 12.041C148.455 11.555 147.627 11.312 146.529 11.312H143.559V16.847H146.529C147.627 16.847 148.455 16.613 149.013 16.145C149.571 15.659 149.85 14.975 149.85 14.093ZM172.915 18.71C172.915 18.746 172.888 19.169 172.834 19.979H162.196C162.412 20.735 162.826 21.32 163.438 21.734C164.068 22.13 164.851 22.328 165.787 22.328C166.489 22.328 167.092 22.229 167.596 22.031C168.118 21.833 168.64 21.509 169.162 21.059L171.862 23.867C170.44 25.451 168.361 26.243 165.625 26.243C163.915 26.243 162.412 25.919 161.116 25.271C159.82 24.623 158.812 23.723 158.092 22.571C157.39 21.419 157.039 20.114 157.039 18.656C157.039 17.216 157.381 15.929 158.065 14.795C158.767 13.643 159.73 12.743 160.954 12.095C162.178 11.447 163.555 11.123 165.085 11.123C166.543 11.123 167.866 11.429 169.054 12.041C170.242 12.635 171.178 13.508 171.862 14.66C172.564 15.794 172.915 17.144 172.915 18.71ZM165.112 14.768C164.32 14.768 163.654 14.993 163.114 15.443C162.592 15.893 162.259 16.505 162.115 17.279H168.109C167.965 16.505 167.623 15.893 167.083 15.443C166.561 14.993 165.904 14.768 165.112 14.768ZM180.599 26.243C179.375 26.243 178.169 26.108 176.981 25.838C175.793 25.55 174.839 25.181 174.119 24.731L175.658 21.221C176.324 21.635 177.116 21.968 178.034 22.22C178.952 22.454 179.861 22.571 180.761 22.571C181.589 22.571 182.174 22.49 182.516 22.328C182.876 22.148 183.056 21.896 183.056 21.572C183.056 21.248 182.84 21.023 182.408 20.897C181.994 20.753 181.328 20.618 180.41 20.492C179.24 20.348 178.241 20.159 177.413 19.925C176.603 19.691 175.901 19.259 175.307 18.629C174.713 17.999 174.416 17.117 174.416 15.983C174.416 15.047 174.695 14.219 175.253 13.499C175.811 12.761 176.621 12.185 177.683 11.771C178.763 11.339 180.05 11.123 181.544 11.123C182.606 11.123 183.659 11.231 184.703 11.447C185.747 11.663 186.62 11.969 187.322 12.365L185.783 15.848C184.487 15.128 183.083 14.768 181.571 14.768C180.761 14.768 180.167 14.867 179.789 15.065C179.411 15.245 179.222 15.488 179.222 15.794C179.222 16.136 179.429 16.379 179.843 16.523C180.257 16.649 180.941 16.784 181.895 16.928C183.101 17.108 184.1 17.315 184.892 17.549C185.684 17.783 186.368 18.215 186.944 18.845C187.538 19.457 187.835 20.321 187.835 21.437C187.835 22.355 187.556 23.183 186.998 23.921C186.44 24.641 185.612 25.208 184.514 25.622C183.434 26.036 182.129 26.243 180.599 26.243ZM190.045 11.366H195.175V26H190.045V11.366ZM192.61 9.746C191.674 9.746 190.918 9.485 190.342 8.963C189.766 8.441 189.478 7.793 189.478 7.019C189.478 6.245 189.766 5.597 190.342 5.075C190.918 4.553 191.674 4.292 192.61 4.292C193.546 4.292 194.302 4.544 194.878 5.048C195.454 5.534 195.742 6.164 195.742 6.938C195.742 7.748 195.454 8.423 194.878 8.963C194.302 9.485 193.546 9.746 192.61 9.746ZM214.061 5.966V26H209.174V24.542C208.22 25.676 206.789 26.243 204.881 26.243C203.549 26.243 202.334 25.937 201.236 25.325C200.138 24.695 199.265 23.804 198.617 22.652C197.987 21.5 197.672 20.168 197.672 18.656C197.672 17.144 197.987 15.821 198.617 14.687C199.265 13.535 200.138 12.653 201.236 12.041C202.334 11.429 203.549 11.123 204.881 11.123C206.627 11.123 207.977 11.627 208.931 12.635V5.966H214.061ZM205.961 22.166C206.843 22.166 207.572 21.86 208.148 21.248C208.724 20.618 209.012 19.754 209.012 18.656C209.012 17.576 208.724 16.73 208.148 16.118C207.59 15.506 206.861 15.2 205.961 15.2C205.061 15.2 204.323 15.506 203.747 16.118C203.171 16.73 202.883 17.576 202.883 18.656C202.883 19.754 203.171 20.618 203.747 21.248C204.323 21.86 205.061 22.166 205.961 22.166ZM232.32 18.71C232.32 18.746 232.293 19.169 232.239 19.979H221.601C221.817 20.735 222.231 21.32 222.843 21.734C223.473 22.13 224.256 22.328 225.192 22.328C225.894 22.328 226.497 22.229 227.001 22.031C227.523 21.833 228.045 21.509 228.567 21.059L231.267 23.867C229.845 25.451 227.766 26.243 225.03 26.243C223.32 26.243 221.817 25.919 220.521 25.271C219.225 24.623 218.217 23.723 217.497 22.571C216.795 21.419 216.444 20.114 216.444 18.656C216.444 17.216 216.786 15.929 217.47 14.795C218.172 13.643 219.135 12.743 220.359 12.095C221.583 11.447 222.96 11.123 224.49 11.123C225.948 11.123 227.271 11.429 228.459 12.041C229.647 12.635 230.583 13.508 231.267 14.66C231.969 15.794 232.32 17.144 232.32 18.71ZM224.517 14.768C223.725 14.768 223.059 14.993 222.519 15.443C221.997 15.893 221.664 16.505 221.52 17.279H227.514C227.37 16.505 227.028 15.893 226.488 15.443C225.966 14.993 225.309 14.768 224.517 14.768ZM244.216 11.123C246.034 11.123 247.492 11.663 248.59 12.743C249.706 13.823 250.264 15.452 250.264 17.63V26H245.134V18.467C245.134 16.469 244.333 15.47 242.731 15.47C241.849 15.47 241.138 15.758 240.598 16.334C240.076 16.91 239.815 17.774 239.815 18.926V26H234.685V11.366H239.572V12.959C240.148 12.365 240.832 11.915 241.624 11.609C242.416 11.285 243.28 11.123 244.216 11.123ZM261.175 26.243C259.555 26.243 258.106 25.919 256.828 25.271C255.55 24.623 254.551 23.723 253.831 22.571C253.129 21.419 252.778 20.114 252.778 18.656C252.778 17.198 253.129 15.902 253.831 14.768C254.551 13.616 255.55 12.725 256.828 12.095C258.106 11.447 259.555 11.123 261.175 11.123C262.831 11.123 264.262 11.483 265.468 12.203C266.674 12.905 267.529 13.886 268.033 15.146L264.064 17.171C263.398 15.857 262.426 15.2 261.148 15.2C260.23 15.2 259.465 15.506 258.853 16.118C258.259 16.73 257.962 17.576 257.962 18.656C257.962 19.754 258.259 20.618 258.853 21.248C259.465 21.86 260.23 22.166 261.148 22.166C262.426 22.166 263.398 21.509 264.064 20.195L268.033 22.22C267.529 23.48 266.674 24.47 265.468 25.19C264.262 25.892 262.831 26.243 261.175 26.243ZM284.764 18.71C284.764 18.746 284.737 19.169 284.683 19.979H274.045C274.261 20.735 274.675 21.32 275.287 21.734C275.917 22.13 276.7 22.328 277.636 22.328C278.338 22.328 278.941 22.229 279.445 22.031C279.967 21.833 280.489 21.509 281.011 21.059L283.711 23.867C282.289 25.451 280.21 26.243 277.474 26.243C275.764 26.243 274.261 25.919 272.965 25.271C271.669 24.623 270.661 23.723 269.941 22.571C269.239 21.419 268.888 20.114 268.888 18.656C268.888 17.216 269.23 15.929 269.914 14.795C270.616 13.643 271.579 12.743 272.803 12.095C274.027 11.447 275.404 11.123 276.934 11.123C278.392 11.123 279.715 11.429 280.903 12.041C282.091 12.635 283.027 13.508 283.711 14.66C284.413 15.794 284.764 17.144 284.764 18.71ZM276.961 14.768C276.169 14.768 275.503 14.993 274.963 15.443C274.441 15.893 274.108 16.505 273.964 17.279H279.958C279.814 16.505 279.472 15.893 278.932 15.443C278.41 14.993 277.753 14.768 276.961 14.768Z" fill="#344F9F"/>
<path d="M9.18 19.142L7.182 21.275V26H1.89V7.1H7.182V14.957L14.499 7.1H20.385L12.663 15.47L20.79 26H14.58L9.18 19.142ZM22.1927 7.1H27.5387V26H22.1927V7.1ZM37.9841 26.378C36.4541 26.378 34.9691 26.189 33.5291 25.811C32.0891 25.433 30.9191 24.929 30.0191 24.299L31.7741 20.357C32.6201 20.915 33.6011 21.365 34.7171 21.707C35.8331 22.049 36.9311 22.22 38.0111 22.22C40.0631 22.22 41.0891 21.707 41.0891 20.681C41.0891 20.141 40.7921 19.745 40.1981 19.493C39.6221 19.223 38.6861 18.944 37.3901 18.656C35.9681 18.35 34.7801 18.026 33.8261 17.684C32.8721 17.324 32.0531 16.757 31.3691 15.983C30.6851 15.209 30.3431 14.165 30.3431 12.851C30.3431 11.699 30.6581 10.664 31.2881 9.746C31.9181 8.81 32.8541 8.072 34.0961 7.532C35.3561 6.992 36.8951 6.722 38.7131 6.722C39.9551 6.722 41.1791 6.866 42.3851 7.154C43.5911 7.424 44.6531 7.829 45.5711 8.369L43.9241 12.338C42.1241 11.366 40.3781 10.88 38.6861 10.88C37.6241 10.88 36.8501 11.042 36.3641 11.366C35.8781 11.672 35.6351 12.077 35.6351 12.581C35.6351 13.085 35.9231 13.463 36.4991 13.715C37.0751 13.967 38.0021 14.228 39.2801 14.498C40.7201 14.804 41.9081 15.137 42.8441 15.497C43.7981 15.839 44.6171 16.397 45.3011 17.171C46.0031 17.927 46.3541 18.962 46.3541 20.276C46.3541 21.41 46.0391 22.436 45.4091 23.354C44.7791 24.272 43.8341 25.01 42.5741 25.568C41.3141 26.108 39.7841 26.378 37.9841 26.378ZM57.5446 26.378C54.7366 26.378 52.5496 25.613 50.9836 24.083C49.4356 22.553 48.6616 20.384 48.6616 17.576V7.1H54.0076V17.414C54.0076 20.438 55.2046 21.95 57.5986 21.95C59.9746 21.95 61.1626 20.438 61.1626 17.414V7.1H66.4276V17.576C66.4276 20.384 65.6446 22.553 64.0786 24.083C62.5306 25.613 60.3526 26.378 57.5446 26.378ZM87.1132 26L87.0592 15.983L82.1992 24.137H79.8232L74.9902 16.253V26H70.0492V7.1H74.4502L81.0922 18.008L87.5722 7.1H91.9732L92.0272 26H87.1132ZM104.531 26.378C101.723 26.378 99.5359 25.613 97.9699 24.083C96.4219 22.553 95.6479 20.384 95.6479 17.576V7.1H100.994V17.414C100.994 20.438 102.191 21.95 104.585 21.95C106.961 21.95 108.149 20.438 108.149 17.414V7.1H113.414V17.576C113.414 20.384 112.631 22.553 111.065 24.083C109.517 25.613 107.339 26.378 104.531 26.378Z" fill="#FFA101"/>
</svg>
