<svg xmlns="http://www.w3.org/2000/svg" xmlns:xlink="http://www.w3.org/1999/xlink" width="609" height="831" viewBox="0 0 609 831">
  <defs>
    <filter id="Rectangle_1039" x="-22.5" y="-16.5" width="654" height="876" filterUnits="userSpaceOnUse">
      <feOffset dy="6" input="SourceAlpha"/>
      <feGaussianBlur stdDeviation="7.5" result="blur"/>
      <feFlood flood-opacity="0.161"/>
      <feComposite operator="in" in2="blur"/>
      <feComposite in="SourceGraphic"/>
    </filter>
    <clipPath id="clip-path">
      <g transform="matrix(1, 0, 0, 1, 0, 0)" filter="url(#Rectangle_1039)">
        <path id="Rectangle_1039-2" data-name="Rectangle 1039" d="M15,0H594a15,15,0,0,1,15,15V831a0,0,0,0,1,0,0H0a0,0,0,0,1,0,0V15A15,15,0,0,1,15,0Z" transform="translate(0.23)" fill="#fafafa" stroke="#707070" stroke-width="1"/>
      </g>
    </clipPath>
    <clipPath id="clip-path-2">
      <rect id="Rectangle_1068" data-name="Rectangle 1068" width="1479.564" height="898.826" fill="none"/>
    </clipPath>
    <clipPath id="clip-path-3">
      <path id="Path_170" data-name="Path 170" d="M1156.811,979.636v44.955h-48.155v-21.2h-60.785v64.238H962.417l-19.539-17.093H873.853L846.57,1074.4H790.521v-57.96H664.373l-39.312,34.393H523.043V988.678H467.649v46.1H404.3l-31.38,27.453h-201.7L152.671,1046H91.885V1001.11H0v110.1H1479.506v-53.5H1336.547l-11.59-10.14H1201.019V979.636Z" transform="translate(0 -979.636)" fill="none"/>
    </clipPath>
    <linearGradient id="linear-gradient" y1="3.485" x2="0" y2="3.485" gradientUnits="objectBoundingBox">
      <stop offset="0" stop-color="#f9f2e8"/>
      <stop offset="1" stop-color="#fff7f5"/>
    </linearGradient>
    <clipPath id="clip-path-4">
      <rect id="Rectangle_1043" data-name="Rectangle 1043" width="1479.566" height="898.826" fill="none"/>
    </clipPath>
    <clipPath id="clip-path-5">
      <path id="Path_172" data-name="Path 172" d="M1804.866,1225.109c-8.329,2.976-17.114,5.951-25.818,5.715a35.644,35.644,0,0,0-20.573,5.53c-13.651-3.677-31.439-2.817-52.046-10.688-28.419-10.856-37.892,8.266-61.576,8.916s-26.05,8.632-26.05,8.632h409.425s-5.046-6.174-16.886-10.438c-6.114-2.2-11.123.653-17.145,3.507-5.643,2.674-12.174,5.348-21.339,3.865-18.946-3.067-40.852-8.288-57.43-8.85s-23.683-3.581-31.972-5.631c-4.531-1.12-9.238,1.144-14.025,3.408-3.972,1.879-8,3.756-12.026,3.7-8.881-.12-11.249-9.2-25.459-12.829a19.271,19.271,0,0,0-4.778-.565c-6.692,0-14.284,2.864-22.3,5.728" transform="translate(-1618.803 -1219.381)" fill="none"/>
    </clipPath>
    <linearGradient id="linear-gradient-2" x1="-2.031" y1="12.512" x2="-2.03" y2="12.512" gradientUnits="objectBoundingBox">
      <stop offset="0" stop-color="#d6baaf"/>
      <stop offset="0.005" stop-color="#d6baaf"/>
      <stop offset="1" stop-color="#ffe7e0"/>
    </linearGradient>
    <clipPath id="clip-path-7">
      <path id="Path_174" data-name="Path 174" d="M1234.161,1255.688h80.225s-2.368-8.505-19.834-6.825-11.249-1.68-31.379-6.1a29.724,29.724,0,0,0-6.4-.722c-15.624,0-22.612,13.65-22.612,13.65" transform="translate(-1234.161 -1242.038)" fill="none"/>
    </clipPath>
    <linearGradient id="linear-gradient-3" x1="-7.903" y1="24.954" x2="-7.896" y2="24.954" xlink:href="#linear-gradient-2"/>
    <clipPath id="clip-path-8">
      <path id="Path_175" data-name="Path 175" d="M372.516,1684.018C134.367,1733.108,0,1668.485,0,1668.485v143.66H1479.566v-143.66c-106.693,30.771-284.428,17.691-480.8,4.611-107.253-7.145-220.048-14.289-329.88-14.288-103.858,0-205.067,6.391-296.374,25.211" transform="translate(0 -1658.808)" fill="none"/>
    </clipPath>
    <linearGradient id="linear-gradient-4" y1="1" x2="0" y2="1" gradientUnits="objectBoundingBox">
      <stop offset="0" stop-color="#f9f9f9"/>
      <stop offset="1" stop-color="#ffebe6"/>
    </linearGradient>
    <clipPath id="clip-path-9">
      <path id="Path_176" data-name="Path 176" d="M0,1272.412v109.55H91.885v-44.891h60.786l18.551-16.23h201.7l31.38,27.453h63.351v46.1h55.395v-62.157H625.061l39.312,34.393H790.521V1308.67H846.57l27.283,23.869h69.026l19.539-17.094h85.454v64.238h60.785v-21.2h48.155v44.955h44.208v-67.942h123.939l11.59-10.139h142.859l.16-52.942Z" transform="translate(0 -1272.412)" fill="none"/>
    </clipPath>
    <linearGradient id="linear-gradient-5" y1="2.496" x2="0" y2="2.496" xlink:href="#linear-gradient"/>
    <clipPath id="clip-path-11">
      <rect id="Rectangle_1050" data-name="Rectangle 1050" width="50.09" height="16.495" fill="none"/>
    </clipPath>
    <clipPath id="clip-path-12">
      <path id="Path_177" data-name="Path 177" d="M1122.019,1708.779c0,4.555-11.214,8.247-25.046,8.247s-25.046-3.692-25.046-8.247,11.213-8.248,25.046-8.248,25.046,3.693,25.046,8.248" transform="translate(-1071.927 -1700.531)" fill="none"/>
    </clipPath>
    <linearGradient id="linear-gradient-6" x1="-10.993" y1="8.159" x2="-10.982" y2="8.159" gradientUnits="objectBoundingBox">
      <stop offset="0" stop-color="#ffdebc"/>
      <stop offset="1" stop-color="#bd856a"/>
    </linearGradient>
    <clipPath id="clip-path-13">
      <path id="Path_180" data-name="Path 180" d="M957.023,642.357l.991,3.662,372.278-87.695Z" transform="translate(-957.023 -558.324)" fill="none"/>
    </clipPath>
    <linearGradient id="linear-gradient-7" x1="-1.258" y1="3.76" x2="-1.256" y2="3.76" gradientUnits="objectBoundingBox">
      <stop offset="0" stop-color="#fff"/>
      <stop offset="1" stop-color="#c7c7c7"/>
    </linearGradient>
    <clipPath id="clip-path-14">
      <path id="Path_181" data-name="Path 181" d="M947.134,581.591l.99,3.661L1310.78,472.979Z" transform="translate(-947.134 -472.979)" fill="none"/>
    </clipPath>
    <linearGradient id="linear-gradient-8" x1="-1.234" y1="3.558" x2="-1.232" y2="3.558" xlink:href="#linear-gradient-7"/>
    <clipPath id="clip-path-15">
      <path id="Path_182" data-name="Path 182" d="M1686.8,478.718c-6.482,1.316-28.031,8.035-31.439,9.053s-38.841,13.561-41.073,15.233l82.62-22.466c-.22-.617-2.351-2.211-6.421-2.212a18.522,18.522,0,0,0-3.687.392" transform="translate(-1614.293 -478.326)" fill="none"/>
    </clipPath>
    <linearGradient id="linear-gradient-9" x1="-9.472" y1="14.979" x2="-9.466" y2="14.979" xlink:href="#linear-gradient-7"/>
    <clipPath id="clip-path-16">
      <path id="Path_183" data-name="Path 183" d="M1652.6,425.158c.088.251,25.27,31.929,25.27,31.929l15.231-4.241s-28.392-22.188-33.4-25.68c-2.788-1.944-4.7-2.423-5.831-2.424-.9,0-1.308.3-1.269.416" transform="translate(-1652.596 -424.742)" fill="none"/>
    </clipPath>
    <linearGradient id="linear-gradient-10" x1="-16.817" y1="16.993" x2="-16.806" y2="16.993" xlink:href="#linear-gradient-7"/>
    <clipPath id="clip-path-17">
      <path id="Path_184" data-name="Path 184" d="M1691.143,492.741l5.471-1.7-3.679-4.631a3.854,3.854,0,0,1-1.792,6.332" transform="translate(-1691.143 -486.409)" fill="none"/>
    </clipPath>
    <linearGradient id="linear-gradient-11" x1="-115.875" y1="90.47" x2="-115.806" y2="90.47" xlink:href="#linear-gradient-7"/>
    <clipPath id="clip-path-18">
      <path id="Path_185" data-name="Path 185" d="M1728.414,484.535l1.809-.518c-1.787.512-3.962-1.318-4.016-1.363Zm-2.207-1.881h0" transform="translate(-1726.206 -482.653)" fill="none"/>
    </clipPath>
    <linearGradient id="linear-gradient-12" x1="-197.327" y1="235.157" x2="-197.213" y2="235.157" xlink:href="#linear-gradient-7"/>
    <clipPath id="clip-path-19">
      <path id="Path_186" data-name="Path 186" d="M1606.819,508.6l7.266,9.232,6.6-2.568s-9.544-5.846-10.969-6.764a2.357,2.357,0,0,0-1.3-.383,3.1,3.1,0,0,0-1.6.484" transform="translate(-1606.819 -508.115)" fill="none"/>
    </clipPath>
    <linearGradient id="linear-gradient-13" x1="-49.411" y1="51.436" x2="-49.38" y2="51.436" xlink:href="#linear-gradient-7"/>
    <clipPath id="clip-path-20">
      <path id="Path_187" data-name="Path 187" d="M1615.379,527.621c.067-.028.131-.056.193-.084Zm.193-.084,2.675-1.17-2.162-2.747c.952,1.209,1.667,2.908-.513,3.918" transform="translate(-1615.379 -523.619)" fill="none"/>
    </clipPath>
    <linearGradient id="linear-gradient-14" x1="-189.442" y1="142.713" x2="-189.325" y2="142.713" xlink:href="#linear-gradient-7"/>
    <clipPath id="clip-path-21">
      <path id="Path_188" data-name="Path 188" d="M1703.074,468.509l.617,1.737.617,1.738s7.368.14,12.843-1.587l-1.234-3.474-1.235-3.475a44.774,44.774,0,0,0-11.608,5.062" transform="translate(-1703.074 -463.447)" fill="none"/>
    </clipPath>
    <linearGradient id="linear-gradient-15" x1="-55.357" y1="62.983" x2="-55.324" y2="62.983" xlink:href="#linear-gradient-7"/>
    <clipPath id="clip-path-22">
      <path id="Path_189" data-name="Path 189" d="M1614.293,505.714c2.922.27,40.24-6.969,43.706-7.82s25.573-6,31.765-8.134,7.427-5.729,7.149-6.512Z" transform="translate(-1614.293 -483.248)" fill="none"/>
    </clipPath>
    <linearGradient id="linear-gradient-16" x1="-9.524" y1="15.523" x2="-9.518" y2="15.523" xlink:href="#linear-gradient-7"/>
    <clipPath id="clip-path-23">
      <path id="Path_190" data-name="Path 190" d="M1706.937,508.751s-.219,38.585-.13,38.835,2.683.187,4.548-5.175,10.878-37.721,10.878-37.721Z" transform="translate(-1706.786 -504.691)" fill="none"/>
    </clipPath>
    <linearGradient id="linear-gradient-17" x1="-28.602" y1="14.883" x2="-28.585" y2="14.883" xlink:href="#linear-gradient-7"/>
    <clipPath id="clip-path-24">
      <path id="Path_191" data-name="Path 191" d="M1696.161,515.037a4.48,4.48,0,0,1,5.578,4.328l.031-5.639Z" transform="translate(-1696.161 -513.726)" fill="none"/>
    </clipPath>
    <linearGradient id="linear-gradient-18" x1="-118.145" y1="96.8" x2="-118.075" y2="96.8" xlink:href="#linear-gradient-7"/>
    <clipPath id="clip-path-25">
      <path id="Path_192" data-name="Path 192" d="M1735.162,507.653h0m.6-2.645-.6,2.645c.012-.049.618-2.649,2.426-3.115Z" transform="translate(-1735.162 -504.537)" fill="none"/>
    </clipPath>
    <linearGradient id="linear-gradient-19" x1="-259.549" y1="185.275" x2="-259.399" y2="185.275" xlink:href="#linear-gradient-7"/>
    <clipPath id="clip-path-26">
      <path id="Path_193" data-name="Path 193" d="M1621.769,530.925l0,11.207a2.564,2.564,0,0,0,2.451-1.353c.58-1.464,4.654-11.013,4.654-11.013Z" transform="translate(-1621.766 -529.767)" fill="none"/>
    </clipPath>
    <linearGradient id="linear-gradient-20" x1="-73.735" y1="47.915" x2="-73.689" y2="47.915" xlink:href="#linear-gradient-7"/>
    <clipPath id="clip-path-27">
      <path id="Path_194" data-name="Path 194" d="M1615.593,532.732l.214-.026c-.07.007-.141.016-.214.026m.214-.026c2.449-.249,2.961,1.5,2.96,2.972v-3.335Z" transform="translate(-1615.593 -532.343)" fill="none"/>
    </clipPath>
    <linearGradient id="linear-gradient-21" x1="-189.611" y1="159.65" x2="-189.494" y2="159.65" xlink:href="#linear-gradient-7"/>
    <clipPath id="clip-path-28">
      <path id="Path_195" data-name="Path 195" d="M1718.2,517.192l.617,1.738.617,1.737s7.368.14,12.843-1.586l-1.234-3.475-1.235-3.475a44.786,44.786,0,0,0-11.608,5.061" transform="translate(-1718.205 -512.131)" fill="none"/>
    </clipPath>
    <linearGradient id="linear-gradient-22" x1="-55.85" y1="60.991" x2="-55.818" y2="60.991" gradientUnits="objectBoundingBox">
      <stop offset="0" stop-color="#fff"/>
      <stop offset="0.791" stop-color="#c7c7c7"/>
      <stop offset="1" stop-color="#c7c7c7"/>
    </linearGradient>
    <clipPath id="clip-path-29">
      <rect id="Rectangle_1699" data-name="Rectangle 1699" width="473.807" height="675.457" fill="none"/>
    </clipPath>
    <clipPath id="clip-path-31">
      <rect id="Rectangle_1697" data-name="Rectangle 1697" width="58.59" height="38.726" fill="none"/>
    </clipPath>
    <clipPath id="clip-path-32">
      <path id="Path_38287" data-name="Path 38287" d="M13.43,179.116a99.313,99.313,0,0,0,7.05,9.923l51.541-34.73c-1.053-1.366-2.122-2.7-3.245-4Z" transform="translate(-13.43 -150.313)" fill="none"/>
    </clipPath>
    <linearGradient id="linear-gradient-23" x1="-0.235" y1="7.094" x2="-0.211" y2="7.094" gradientUnits="objectBoundingBox">
      <stop offset="0" stop-color="#78776e"/>
      <stop offset="1" stop-color="#231f20"/>
    </linearGradient>
  </defs>
  <g id="Mask_Group_1" data-name="Mask Group 1" transform="translate(-0.226)" clip-path="url(#clip-path)">
    <g id="Group_1689" data-name="Group 1689" transform="translate(-310.428 -67.341)">
      <g id="Group_1688" data-name="Group 1688" clip-path="url(#clip-path-2)">
        <rect id="Rectangle_1040" data-name="Rectangle 1040" width="1479.506" height="898.826" transform="translate(0.03)" fill="#fafafa"/>
        <path id="Path_169" data-name="Path 169" d="M1125.249,691.615V764.7h-24.611l-21.643,22.034h-25.041V755.02h-48.084V830.4H944.957V770.324h-45.34V739.2H846.155V859.983h-3.548V770.324h-60.67V830.4H742.163V786.75H638.17v39.468H610.888V800.077h-70.38V691.615H471.659V764.7H447.029l-21.643,22.034h-25V755.02H352.3V830.4H291.367V770.324H246.009V739.2H192.566V859.983h-23.23l-22.893-23.308H88.573V786.75H28.968v98.005H8.545v388.027H1483.661V770.324h-48.153V830.4h-88.98V786.75h-54.75v39.468H1264.5V800.077h-70.418V691.615Z" transform="translate(-4.155 -380.794)" fill="#ffebd4"/>
        <rect id="Rectangle_1041" data-name="Rectangle 1041" width="1475.176" height="229.946" transform="translate(4.39 571.838)" fill="#fff"/>
        <g id="Group_1636" data-name="Group 1636" transform="translate(0 440.261)">
          <g id="Group_1635" data-name="Group 1635" clip-path="url(#clip-path-3)">
            <rect id="Rectangle_1042" data-name="Rectangle 1042" width="1479.506" height="131.577" transform="translate(0 0)" fill="url(#linear-gradient)"/>
          </g>
        </g>
        <g id="Group_1638" data-name="Group 1638">
          <g id="Group_1637" data-name="Group 1637" clip-path="url(#clip-path-4)">
            <path id="Path_171" data-name="Path 171" d="M502.891,1240.733s7.073-22.188,40.244-17.548,31.331-8.309,46.757-8.309,25.193,12.176,45.177,13.081,28.272,12.776,46.625,12.776Z" transform="translate(-244.559 -668.895)" fill="#f5a48c"/>
          </g>
        </g>
        <g id="Group_1640" data-name="Group 1640" transform="translate(831.57 548.005)">
          <g id="Group_1639" data-name="Group 1639" clip-path="url(#clip-path-5)">
            <rect id="Rectangle_1044" data-name="Rectangle 1044" width="409.425" height="28.404" transform="translate(0 -4.571)" fill="url(#linear-gradient-2)"/>
          </g>
        </g>
        <g id="Group_1642" data-name="Group 1642">
          <g id="Group_1641" data-name="Group 1641" clip-path="url(#clip-path-4)">
            <path id="Path_173" data-name="Path 173" d="M133.406,1254.285s2.436-8.247,13.29-7.555,9.079-9.151,19.736-6.907,16.38,14.462,25.854,14.462Z" transform="translate(-64.876 -682.447)" fill="#f5a48c"/>
          </g>
        </g>
        <g id="Group_1644" data-name="Group 1644" transform="translate(633.982 558.188)">
          <g id="Group_1643" data-name="Group 1643" clip-path="url(#clip-path-7)">
            <rect id="Rectangle_1046" data-name="Rectangle 1046" width="80.225" height="13.65" transform="translate(0 0)" fill="url(#linear-gradient-3)"/>
          </g>
        </g>
        <g id="Group_1646" data-name="Group 1646" transform="translate(0 745.49)">
          <g id="Group_1645" data-name="Group 1645" clip-path="url(#clip-path-8)">
            <rect id="Rectangle_1047" data-name="Rectangle 1047" width="1479.566" height="153.337" transform="translate(0 -0.001)" fill="url(#linear-gradient-4)"/>
          </g>
        </g>
        <g id="Group_1648" data-name="Group 1648" transform="translate(0 571.838)">
          <g id="Group_1647" data-name="Group 1647" clip-path="url(#clip-path-9)">
            <rect id="Rectangle_1048" data-name="Rectangle 1048" width="1479.566" height="131.024" transform="translate(0)" fill="url(#linear-gradient-5)"/>
          </g>
        </g>
        <g id="Group_1655" data-name="Group 1655">
          <g id="Group_1654" data-name="Group 1654" clip-path="url(#clip-path-4)">
            <g id="Group_1653" data-name="Group 1653" transform="translate(550.645 764.24)" opacity="0.38" style="mix-blend-mode: multiply;isolation: isolate">
              <g id="Group_1652" data-name="Group 1652">
                <g id="Group_1651" data-name="Group 1651" clip-path="url(#clip-path-11)">
                  <g id="Group_1650" data-name="Group 1650" transform="translate(-0.002)">
                    <g id="Group_1649" data-name="Group 1649" clip-path="url(#clip-path-12)">
                      <rect id="Rectangle_1049" data-name="Rectangle 1049" width="50.092" height="16.495" transform="translate(0)" fill="url(#linear-gradient-6)"/>
                    </g>
                  </g>
                </g>
              </g>
            </g>
            <path id="Path_178" data-name="Path 178" d="M6.578,1687.7s25.748,63.8,196.714,51.776,228.546-67.573,538.519-55.113,602.666,65.527,740.954-.3c0,0-109.869,44.347-419.2,13.646s-485.837-22.514-596.776-8.427S190.6,1763.558,6.578,1687.7" transform="translate(-3.199 -923.174)" fill="#fff"/>
            <path id="Path_179" data-name="Path 179" d="M1134.1,1701.344c0,4.555-11.214,8.248-25.047,8.248S1084,1705.9,1084,1701.344s11.214-8.248,25.046-8.248,25.047,3.693,25.047,8.248" transform="translate(-527.157 -932.197)" fill="#fff"/>
          </g>
        </g>
        <g id="Group_1657" data-name="Group 1657" transform="translate(491.618 250.918)">
          <g id="Group_1656" data-name="Group 1656" clip-path="url(#clip-path-13)">
            <path id="Path_38223" data-name="Path 38223" d="M0,0,381.189,14.33l7.866,187.9L7.866,187.9Z" transform="translate(-29.745 8.557) rotate(-18.203)" fill="url(#linear-gradient-7)"/>
          </g>
        </g>
        <g id="Group_1659" data-name="Group 1659" transform="translate(486.538 212.563)">
          <g id="Group_1658" data-name="Group 1658" clip-path="url(#clip-path-14)">
            <path id="Path_38224" data-name="Path 38224" d="M0,0,380.829,14.316l8.745,208.911L8.745,208.911Z" transform="translate(-38.082 10.956) rotate(-18.203)" fill="url(#linear-gradient-8)"/>
          </g>
        </g>
        <g id="Group_1661" data-name="Group 1661" transform="translate(829.254 214.966)">
          <g id="Group_1660" data-name="Group 1660" clip-path="url(#clip-path-15)">
            <path id="Path_38225" data-name="Path 38225" d="M0,0,86.2,3.293l2,47.051L2,47.051Z" transform="matrix(0.948, -0.318, 0.318, 0.948, -8.504, 2.495)" fill="url(#linear-gradient-9)"/>
          </g>
        </g>
        <g id="Group_1663" data-name="Group 1663" transform="translate(848.93 190.885)">
          <g id="Group_1662" data-name="Group 1662" clip-path="url(#clip-path-16)">
            <path id="Path_38226" data-name="Path 38226" d="M0,0,49.557,1.894l1.809,42.55L1.809,42.55Z" transform="translate(-11.183 3.27) rotate(-18.541)" fill="url(#linear-gradient-10)"/>
          </g>
        </g>
        <g id="Group_1665" data-name="Group 1665" transform="translate(868.731 218.598)">
          <g id="Group_1664" data-name="Group 1664" clip-path="url(#clip-path-17)">
            <path id="Path_38227" data-name="Path 38227" d="M0,0,7.394.282l.325,7.634L.325,7.634Z" transform="translate(-2.182 0.64) rotate(-18.54)" fill="url(#linear-gradient-11)"/>
          </g>
        </g>
        <g id="Group_1667" data-name="Group 1667" transform="translate(886.743 216.91)">
          <g id="Group_1666" data-name="Group 1666" clip-path="url(#clip-path-18)">
            <path id="Path_38228" data-name="Path 38228" d="M0,0,4.436.169l.125,2.944L.125,2.944Z" transform="translate(-0.649 0.19) rotate(-18.54)" fill="url(#linear-gradient-12)"/>
          </g>
        </g>
        <g id="Group_1669" data-name="Group 1669" transform="translate(825.414 228.353)">
          <g id="Group_1668" data-name="Group 1668" clip-path="url(#clip-path-19)">
            <path id="Path_38229" data-name="Path 38229" d="M0,0,16.466.629l.563,13.257L.563,13.257Z" transform="translate(-3.348 0.982) rotate(-18.541)" fill="url(#linear-gradient-13)"/>
          </g>
        </g>
        <g id="Group_1671" data-name="Group 1671" transform="translate(829.812 235.321)">
          <g id="Group_1670" data-name="Group 1670" clip-path="url(#clip-path-20)">
            <path id="Path_38230" data-name="Path 38230" d="M0,0,4.3.191l.232,4.745-4.3-.191Z" transform="translate(-1.592 0.564) rotate(-22.056)" fill="url(#linear-gradient-14)"/>
          </g>
        </g>
        <g id="Group_1673" data-name="Group 1673" transform="translate(874.86 208.279)">
          <g id="Group_1672" data-name="Group 1672" clip-path="url(#clip-path-21)">
            <path id="Path_38231" data-name="Path 38231" d="M0,0,15.708.39l.31,11.046L.31,11.046Z" transform="translate(-1.959 0.353) rotate(-11.634)" fill="url(#linear-gradient-15)"/>
          </g>
        </g>
        <g id="Group_1675" data-name="Group 1675" transform="translate(829.254 217.178)">
          <g id="Group_1674" data-name="Group 1674" clip-path="url(#clip-path-22)">
            <path id="Path_38232" data-name="Path 38232" d="M0,0,85.76,3.277l1.924,45.262L1.924,45.262Z" transform="translate(-7.835 2.299) rotate(-18.541)" fill="url(#linear-gradient-16)"/>
          </g>
        </g>
        <g id="Group_1677" data-name="Group 1677" transform="translate(876.767 226.815)">
          <g id="Group_1676" data-name="Group 1676" clip-path="url(#clip-path-23)">
            <path id="Path_38233" data-name="Path 38233" d="M0,0,30.007,1.147l1.95,45.877L1.95,45.877Z" transform="translate(-14.936 4.362) rotate(-18.541)" fill="url(#linear-gradient-17)"/>
          </g>
        </g>
        <g id="Group_1679" data-name="Group 1679" transform="translate(871.309 230.875)">
          <g id="Group_1678" data-name="Group 1678" clip-path="url(#clip-path-24)">
            <path id="Path_38234" data-name="Path 38234" d="M0,0,7.274.278l.3,7.007L.3,7.007Z" transform="matrix(0.948, -0.318, 0.318, 0.948, -1.943, 0.57)" fill="url(#linear-gradient-18)"/>
          </g>
        </g>
        <g id="Group_1681" data-name="Group 1681" transform="translate(891.344 226.745)">
          <g id="Group_1680" data-name="Group 1680" clip-path="url(#clip-path-25)">
            <path id="Path_38235" data-name="Path 38235" d="M0,0,3.389.129l.156,3.681L.156,3.681Z" transform="translate(-1.074 0.315) rotate(-18.541)" fill="url(#linear-gradient-19)"/>
          </g>
        </g>
        <g id="Group_1683" data-name="Group 1683" transform="translate(833.093 238.084)">
          <g id="Group_1682" data-name="Group 1682" clip-path="url(#clip-path-26)">
            <path id="Path_38236" data-name="Path 38236" d="M0,0,11.128.425l.6,14L.6,14Z" transform="translate(-4.299 1.261) rotate(-18.541)" fill="url(#linear-gradient-20)"/>
          </g>
        </g>
        <g id="Group_1685" data-name="Group 1685" transform="translate(829.921 239.242)">
          <g id="Group_1684" data-name="Group 1684" clip-path="url(#clip-path-27)">
            <path id="Path_38237" data-name="Path 38237" d="M0,0,4.3.19,4.5,4.408l-4.3-.19Z" transform="matrix(0.927, -0.376, 0.376, 0.927, -1.327, 0.47)" fill="url(#linear-gradient-21)"/>
          </g>
        </g>
        <g id="Group_1687" data-name="Group 1687" transform="translate(882.633 230.158)">
          <g id="Group_1686" data-name="Group 1686" clip-path="url(#clip-path-28)">
            <path id="Path_38238" data-name="Path 38238" d="M0,0,15.708.39l.31,11.046L.31,11.046Z" transform="translate(-1.959 0.353) rotate(-11.634)" fill="url(#linear-gradient-22)"/>
          </g>
        </g>
      </g>
    </g>
    <g id="Group_141206" data-name="Group 141206" transform="translate(67.709 122.126)">
      <g id="Group_141205" data-name="Group 141205" clip-path="url(#clip-path-29)">
        <g id="Group_141204" data-name="Group 141204">
          <g id="Group_141203" data-name="Group 141203" clip-path="url(#clip-path-29)">
            <path id="Path_38239" data-name="Path 38239" d="M80.009,393.026c-2.438,7.273-7.943,12.594-14.765,16.216-9.7,5.15-20.462-3.7-20.865-12.977a22.965,22.965,0,0,1,1.076-6.8q4.112-15.64,8.224-31.283A20.2,20.2,0,0,1,64.6,352.868a3.089,3.089,0,0,1,2.043.2,3.25,3.25,0,0,1,1.1,1.48q2.612,5.438,5.223,10.877c3.9,8.116,9.9,19.069,7.036,27.6" transform="translate(31.981 223.578)" fill="#889493"/>
            <path id="Path_38240" data-name="Path 38240" d="M74.108,349.97a46.063,46.063,0,0,1,6.517,8.468,15.115,15.115,0,0,1,1.951,4.445c1.153,5.267-2.428,9.883-3.159,14.927-.747,5.159-.525,10.529-1.32,15.749l-3,1.493a32.967,32.967,0,0,0-1.5-15.88c-.339-.962-.872-2.041-1.914-2.264a3.3,3.3,0,0,0-2.574.972c-5.343,4.208-8.322,8.9-10.932,15.007-13.187,3.349-25.969,5.6-39.564,4.449-1.561-2.63-1.736-5.568-1.79-8.587,8.7-4.509,17.053-9.788,23.975-16.525,1.3-1.263,3.17-1.626,4.7-2.627l20.23-13.243c2.693-1.763,6.756-3.691,8.382-6.385" transform="translate(12.124 221.789)" fill="#889493"/>
            <path id="Path_38241" data-name="Path 38241" d="M41.114,441.752a15.691,15.691,0,0,1-7.79.176q5.036-8.425,10.07-16.85c2.989-5,7.635-9.619,8.005-15.362,2.149-33.366-8.363-68.411-2.991-101.447A249.84,249.84,0,0,1,23.887,247.79c1.654-1.057,2.3-1.933,4.273-2.232a97.289,97.289,0,0,1,25.862-.433c4.514.552,9.3,1.626,12.366,4.816,1.824,1.893.336,11.907.509,14.609.325,5.03.733,10.031.735,15.11,0,13.743-3.913,25.161,4.743,37.19,3.774,5.243,8.126,10.459,9.258,16.718.8,4.395-.089,8.889-.971,13.268C77.512,362.486,71.42,377.7,66.2,392.949c-1.139,3.325-2.292,6.775-1.9,10.252.559,4.9,4.073,9,5.8,13.642,5.033,13.552-18.351,22.572-28.986,24.91" transform="translate(17.219 154.925)" fill="#c9cecd"/>
            <path id="Path_38242" data-name="Path 38242" d="M77.9,396.882c-1.607,4.075-3.913,8.223-3.97,12.67-.029,2.264,1.227,4.422,1.969,6.558q1.324,3.813,2.44,7.687a10.856,10.856,0,0,1,.6,4.937c-.31,1.658-1.652,3.114-1.86,4.756-.169,1.327.573,2.946.885,4.254.841,3.547,2.084,7.025,2.561,10.644a9.478,9.478,0,0,1-.143,4.367c-.515,1.423-1.408,1.564-2.695,2.251-2.912,1.554-5.591,3.5-8.892,4.272-4.28,1-9.189-.294-11.955-3.552-3.06-3.606-.59-8.306.3-12.315.73-3.289,3.094-8.288,1.094-11.328a5.663,5.663,0,0,1-.962-1.774,4.312,4.312,0,0,1,.368-2.331c6.766-19.012,1.471-42-3.115-61.105-3.061-12.766-7.226-25.8-4.922-38.711,1.3-7.293,5.856-13.263,3.488-20.307-6.876-20.466-11.351-41.577-15.813-62.636,1.814-2.158,3.732-2.045,6.568-2.661,10.182-2.212,20.913-4.05,30.96-1.331,4.505,1.219,8.516,2.933,13.185,3.325,1.3.1-2.927,32.224-3.378,35.009-1.384,8.541-4.053,17.421-3.447,26.114.928,13.279,10.229,24.491,10.533,38.033.391,17.39-7.434,37.058-13.8,53.177" transform="translate(26.868 152.011)" fill="#c9cecd"/>
            <path id="Path_38243" data-name="Path 38243" d="M100.094,183.6c11.1,11.149,12.292,27.943,12.872,43.274.9,23.844,1.5,48.7-1.965,72.337a462.418,462.418,0,0,1-54.089,7.195c-7.281.534-13.968-1.89-20.915-4.024A411.936,411.936,0,0,1,6.405,193.733c25.936-19.7,70.873-33.052,93.689-10.134" transform="translate(4.617 108.711)" fill="#889493"/>
            <path id="Path_38244" data-name="Path 38244" d="M30,137.77c9.453,2.289,19.485.217,29.154,1.444,12.844,1.632,24.043,8.9,36.325,12.822A321.445,321.445,0,0,0,97.36,94.273c-.571-9.928-1.762-20.281-7.51-28.592A44.2,44.2,0,0,0,77.619,54.324c-7-4.623-15.771-8.154-23.94-5.826-3.435.979-6.46,2.916-9.551,4.643-3.855,2.153-7.961,4.06-11.084,7.1-4.206,4.091-2.829,9.646-2.98,15.032q-.289,10.3-.4,20.6-.214,20.948.329,41.894" transform="translate(21.341 30.268)" fill="#9ba8a9"/>
            <path id="Path_38245" data-name="Path 38245" d="M80.125,185.086a38.085,38.085,0,0,1,4.81,6.06l-3.765,3.916c6.178,6.677,11.636,13.7,18.225,20.017a61.847,61.847,0,0,1,13.228,19.806c-1.506,1.315-2.635,1.916-3.526,3.671-1.4-.292-2.413-1.413-3.541-2.241-4.022-2.924-9.139-1.967-12.9.747-4.588,3.331-8.952,6.922-13.331,10.48-8.523,6.9-17.286,13.843-27.69,18.033-6.623,2.665-13.28,5.362-19.27,1.593-15.914-10.008-30.118-27.458-26.867-45.3,1.454-8.043,6.555-14.865,11.843-21.284a20.422,20.422,0,0,0-2.378-5.849c1.043-1.528,3.729-2.875,3.97-4.679.89-6.888,1.624-14.151.786-21.023-5.458-6.077-11.072-12.364-12.39-20.26a78.31,78.31,0,0,1,22.761-19.026q5.39-10.187,10.8-20.373c.976-1.8,2.019-3.705,3.832-4.777a22.541,22.541,0,0,1,13.161-3.266,113.733,113.733,0,0,1,12.459,1.024,119.612,119.612,0,0,1,32,8.984,113.611,113.611,0,0,1,21.939,12.608c4.347,3.2-.222,10.675-2.7,15.338-5.682,10.706-14.665,19.464-23.513,28.027q-8.214,7.967-16.446,15.937c-.855.845-.461,1.2-1.489,1.836" transform="translate(3.623 64.209)" fill="#889493"/>
            <path id="Path_38246" data-name="Path 38246" d="M85.353,110.938c-4.09,4.029-9.258,7.084-14.409,9.927a427.741,427.741,0,0,1-42.357,20.683,99.834,99.834,0,0,1,24.763-39.594,119.605,119.605,0,0,1,32,8.984" transform="translate(20.607 64.612)" fill="#c9cecd"/>
            <path id="Path_38247" data-name="Path 38247" d="M119.668,189.416c.351,2.024-4.244,6.461-5.567,7.844a87.751,87.751,0,0,1-7.809,6.922,110.994,110.994,0,0,1-20.337,13.49c-1.884.946-22.405,9.716-22.827,8.768-1.776-3.991-3.23-7.28-5.006-11.271,11.227-8.616,24.219-22.42,35.446-31.036.841-.714-8.907-11.644-9.855-12.805a92.921,92.921,0,0,1-11.006-17.254c-2.5-4.985-7-12-5.52-17.7A52.7,52.7,0,0,1,74.8,119.737c1.244-1.809,2.746-3.646,4.913-4.31,2.01-.614,4.189-.091,6.228.433a85.827,85.827,0,0,1,4.269,7.773c9.642,21.859,19.891,39.445,28.11,61.824.8,2.166.958,1.694,1.351,3.959" transform="translate(41.896 72.975)" fill="#889493"/>
            <path id="Path_38248" data-name="Path 38248" d="M77.3,176.518A242.528,242.528,0,0,0,50.522,179.8a15.209,15.209,0,0,0-5.469,2.493c-1.631,1.016-2.327,2.384-3.211,4.047a43.556,43.556,0,0,0-4.38,12.449c-.115.609-.026,1.474.623,1.532.428.038.754-.345.995-.685a98.661,98.661,0,0,1,8.343-10.319c1.279-1.372,6.272-3.633,5.665.044a4.953,4.953,0,0,1-.959,1.956c-3.806,5.406-9.2,10.235-10.3,16.653.707,1.572,2.437,5.54,4.132,6.26,2.2.936,6.2-1.575,7.661-2.913-.282.256.687,1.549.957,1.684a2.3,2.3,0,0,0,2.21-.443,44.671,44.671,0,0,0,8.988-7.388c2.683-2.872,5.877-5.622,8.146-8.8,2.648-3.707,3.994-8.1,5.113-12.449a11.453,11.453,0,0,0,.521-4.182c-.169-1.4-.774-3.32-2.258-3.222" transform="translate(26.974 111.864)" fill="#c9cecd"/>
            <path id="Path_38249" data-name="Path 38249" d="M18.038,193.776a65.748,65.748,0,0,0-3.86-7.028c-1.514-2.509-4.748-7.736-8.222-7.79C1,178.882,2.6,184.743,4.572,187.083c-.437,2.32-1.612,5.323-2.05,7.641-.446,2.372-.89,4.829-.263,7.164a11.055,11.055,0,0,0-2.077,2.189A1.073,1.073,0,0,0,0,204.6a1.15,1.15,0,0,0,.234.591,23.985,23.985,0,0,0,1.68,2.3,18.794,18.794,0,0,0,4.02,3.705,32.09,32.09,0,0,0,8.866,3.6c1.593-.384,2.161-2.06,2.068-3.619,2.189.993,3.278,1.974,5.6,2.652a1.092,1.092,0,0,0,.632.054.956.956,0,0,0,.5-.534,8.423,8.423,0,0,0,.015-6.764c-.389-1.006-4.731-9.561-5.94-9.311a1.384,1.384,0,0,0,1.008-1.263,3.546,3.546,0,0,0-.384-1.644c-.084-.2-.172-.4-.262-.6" transform="translate(0 113.412)" fill="#c9cecd"/>
            <path id="Path_38250" data-name="Path 38250" d="M72.824,93.714c0,7.585-1.864,14.939-2.783,22.5a5.543,5.543,0,0,1-.482,1.943,5.29,5.29,0,0,1-1.067,1.287c-4.092,3.91-10.136,7.143-16.119,6.921-3.411-.126-6.324-2.449-9.387-3.877q3.265-12.706,6.531-25.414c.709-2.761,3.445-4.645,6.083-5.993a26.952,26.952,0,0,1,8.551-2.47,10.832,10.832,0,0,1,6.081.451c1.6.752,2.332,2.526,2.592,4.653" transform="translate(30.986 56.018)" fill="#c9cecd"/>
            <path id="Path_38251" data-name="Path 38251" d="M60.8,136.114c10.831.513,22.261-6.455,29.559-13.676,7.19-7.115,11.7-16.421,14.985-25.661,2.743-7.711,4.884-15.762,4.515-23.893-.934-20.673-18.84-31.562-39.6-29.257-14.644,1.626-36.9,14.037-37.234,30.069-.134,6.489,2.526,12.66,3.547,19a22.978,22.978,0,0,1-.236,9.523c-.829,3.209-2.139,6.285-1.936,9.657.306,5.079,3.008,9.969,6.106,14.011A27.3,27.3,0,0,0,60.8,136.114" transform="translate(23.804 27.455)" fill="#c9cecd"/>
            <path id="Path_38252" data-name="Path 38252" d="M116.112,96.572a638.684,638.684,0,0,1-10.236,66.6c-5.89-2.821-10.871-7.072-16.441-10.43-.332-.2.155-.011.074.356-1.215-23.722-3.006-48.014-5.061-71.683a148.472,148.472,0,0,0-20.034-18.9c-2.669-2.086-5.324-2.818-7.076-5.649a28.88,28.88,0,0,0,.224-5.551c-1.194,1.849-1.492,3.359-3.481,4.423q-5.245,2.8-10.368,5.8c-2.667,1.559-6.94,3.16-8.176,6.125-2.208,5.3-1.848,9.36-2,15.045q-.263,9.616-.566,19.231c-.391,12.815-.79,25.628-1.057,38.445-.774.194-1.788.423-2.562.618-.9-26.445-1.886-51.611-.972-78.057.06-1.76.716-2.112,2.037-3.346a19.51,19.51,0,0,1,4.62-2.9c15.759-7.95,31.395-16.411,49.976-13.977,10.277,1.346,22.679,6.757,28.514,15.357,3.2,4.707,3.4,12.382,3.631,17.8a139.066,139.066,0,0,1-1.045,20.7" transform="translate(20.192 26.8)" fill="#9ba8a9"/>
            <path id="Path_38253" data-name="Path 38253" d="M252.4,365.222c-.348.634.158,1.372.649,1.915a62.1,62.1,0,0,0,22.042,15.5c8.327,3.478,19.275,2.968,27.69,6.254,0,4.271-1.084,9.425-3.745,12.869-1.26,1.63-12.094,1.565-14.374,1.789-5.5.541-11.02.905-16.549.99-9.809.152-19.452.709-29.3.874-9.422.159-19.012.3-28.06-2.2-2.6-6.568-2.354-12.7-.527-19.5A33.513,33.513,0,0,1,214.65,373.4,25.206,25.206,0,0,1,230.9,363.066c6.587-1.168,16.062-1.573,21.493,2.156" transform="translate(150.523 229.569)" fill="#889493"/>
            <path id="Path_38254" data-name="Path 38254" d="M187.8,357.14c-5.851,5.942-11.795,12.008-15.482,19.352-2.173,4.328-2.757,10-5.441,14.011-2.98,4.713-10.781,6.9-15.84,8.765a1.772,1.772,0,0,0-1,.66,1.6,1.6,0,0,0-.05,1.077c.738,3.96,1.76,7.842,2.549,11.786a1.4,1.4,0,0,0,.341.792,1.6,1.6,0,0,0,1.033.3,327.416,327.416,0,0,0,34.8.292c3.115-.185,26.028-1.882,26.515-5.3a126.11,126.11,0,0,0,.337-32.961c-.712-5.854-5.3-9.655-10.2-13.268-4.139-3.049-12.323-5.422-17.561-5.5" transform="translate(108.066 226.333)" fill="#889493"/>
            <path id="Path_38255" data-name="Path 38255" d="M162.306,468.474c.769,2.565,1.624,4.614,2.394,7.179a43.516,43.516,0,0,1,13.194-9.25c1.573-.716,2.074-1.617,3.664-.934,10.667,4.594,19.917,10.7,26.1,20.144,3.316-2.645,5.2-6.659,6.4-10.609.26-.116.428.377.172.5a.516.516,0,0,1-.65-.364,88.521,88.521,0,0,1-1.067-47.053c3.829-15.254,12.366-29.754,19.208-43.967,2.578-5.352,5.2-10.77,6.269-16.568s.855-14.1-2.712-18.912a358.985,358.985,0,0,1,15.426-46.723c4.553,21.132,7.224,41.688,10.063,63.09q-8.5,14.419-17,28.837c-6.7,11.358-3.514,21.572-1.244,33.887q1.84,10,3.681,19.994c.668,3.643,4.956,15.236,3.331,18.391-3.433,6.657-6.629,13.289-10.509,19.722a8.587,8.587,0,0,1,3.6,5.687c6.357-4.047,12.789-8.071,19.821-10.943,9.42-3.847,19.144-5.012,29.375-4.357.382-2.323,1.607-4.463,1.989-6.787,1.019-6.162-3.671-11.294-5.051-17.019-1.623-6.725-1.771-14.294-2.167-21.181a163.4,163.4,0,0,1,3.664-46.62,74.985,74.985,0,0,1,6.82-6c4.99-14.731,6.878-29.669,10.361-44.676,3.495-15.063,7.663-30.02,9.814-45.33,4.247-30.231,4.677-61.139-1.588-91.148-26.081,5.486-50.667,7.162-77.374,6.666-8.818-.167-18.009-.761-25.632-4.968-9.6,46.72-19.511,94.247-17.117,141.794-6.685,7.089-13.226,13.653-15.594,22.9-1.167,4.561-1.153,9.311-1.117,14,.1,12.32.177,24.66.63,36.975.365,9.918-2.889,19.347-6.482,28.515-1.6,4.089-3.316,8.12-5.1,12.145-1.1,2.483-6.317,10.5-5.574,12.975" transform="translate(116.944 125.142)" fill="#889493"/>
            <path id="Path_38256" data-name="Path 38256" d="M248.163,174.556c.327,7.9.879,15.847,2.95,23.5A42.878,42.878,0,0,0,262.9,218.237c3.69.526,6.427.417,9.738-1.217a61.362,61.362,0,0,0,12.8-8.441c.946-.812.786-.355,1.108-1.526a71.231,71.231,0,0,0-3.693-10.374l4.082-4.771c.9-1.047.807-3.138.552-4.465-2.956-15.3-5.923-30.649-10.669-45.542a201.267,201.267,0,0,0-11.705-28.8c-6.761,19.115-17.785,41.306-16.95,61.455" transform="translate(178.852 71.676)" fill="#c9cecd"/>
            <path id="Path_38257" data-name="Path 38257" d="M198.093,261.934a5.1,5.1,0,0,1-.819-2.219,5.432,5.432,0,0,1,1.136-3,45.152,45.152,0,0,0,2.679-5.548c.676-1.461,1.341-1.822,1.165-3.382a13.6,13.6,0,0,0-1.261-3.044c-1.659-3.991-3.381-7.96-5.061-11.943a400.135,400.135,0,0,1-22.283-70.241c-2.8-12.83-2.583-28.67-.644-41.641A216.07,216.07,0,0,1,232.22,94.958c5.066-1.367,13.056-3.495,18.089-2.026A232.734,232.734,0,0,1,320.977,127.3c2.975,31.492,2.526,61.984-.454,93.476-.891,9.427-4.6,18.192-8.124,26.947,1.774,2.527,3.781,6.7,5.557,9.227a3.446,3.446,0,0,1,.871,2.171,3.35,3.35,0,0,1-1.11,1.862c-10.076,10.436-25.026,13.792-39.3,14.517-14.748.752-29.839,2.952-44.75,1.724-11.877-.979-29.333-4.334-35.575-15.29" transform="translate(123.657 58.58)" fill="#c9cecd"/>
            <path id="Path_38258" data-name="Path 38258" d="M227.738,235.957a69.291,69.291,0,0,0,12.655,11.854c1.12.814,2.266,1.595,3.411,2.375.413.281-1.132.056-.719.338a7.251,7.251,0,0,0,3.481-2.346c4.371-4.447,7.35-7.585,11.485-12.232,2.535-18.747-.086-37.591-3.653-56.1a242.7,242.7,0,0,0-17.014-54.34c2.3-1.439,3.242-4.058,3.9-6.6-4.6-6.243-9.539-11.83-15.95-14.831a77.468,77.468,0,0,0-8.94,18.574c1.423,1.98,3.576,4.269,5.916,5.171,7.145,35,9.437,72.688,5.433,108.142" transform="translate(155.981 65.953)" fill="#889493"/>
            <path id="Path_38259" data-name="Path 38259" d="M168.1,139.637c.826-7.157,3.837-13.9,6.814-20.523q1.861-4.137,3.72-8.275c.059-.127.138-.271.282-.291s.244.222.1.248a66.777,66.777,0,0,1,19.96,25.13c4.275,9.456,6.87,19.505,9.447,29.5q2.943,11.41,5.885,22.823c3.753-.6,7.4-2.176,11.215-2.021,9.774.4,11.079,9.7,12.507,16.95,1.714,8.7,1.855,17.6,1.612,26.416-.1,3.741-1.361,8.3-4.725,10.255a24.52,24.52,0,0,1-12.951,3.241,6.992,6.992,0,0,1-2.373-.389c-3.094-1.225-5.471-4.117-8.429-5.7-3.8-2.034-7.866-3.343-11.777-5.128a31.73,31.73,0,0,1-13.529-12.534,65.618,65.618,0,0,1-6.827-16.961c-4.464-16.117-8.525-32.984-9.96-49.617-2.108-1.443-3.724-4.284-4.77-6.543.835-2.663,3.478-3.82,3.8-6.582" transform="translate(118.434 70.058)" fill="#c9cecd"/>
            <path id="Path_38260" data-name="Path 38260" d="M239.8,166.547q-11.438-12.9-24.143-24.727c-10.693-.137-21.609-.688-31.185,3.834-.747.351-1.564.84-1.69,1.624-.229,1.452.824,2.769,1.358,4.15a1.149,1.149,0,0,0,.372.577,1.286,1.286,0,0,0,.728.142l10.827-.011a24.525,24.525,0,0,1,2.108,7.141c-3.244,3.254-6.169,5.367-8.7,9.151,3.478,4.367,7.962,8.83,13.133,11.253,3.371-3.042,7.544-5.3,10.915-8.343a13.753,13.753,0,0,1,2.507-1.934,7.077,7.077,0,0,1,1.456-.6c5.094.8,10.42,1.457,15.513,2.253a17.817,17.817,0,0,0,7.243.134c0-1.42.516-3.553-.446-4.641" transform="translate(131.729 89.817)" fill="#9ba8a9"/>
            <path id="Path_38261" data-name="Path 38261" d="M282.456,155.611c-.819-.814-6.8-.121-8.093-.126q-4.4-.015-8.8.087-8.774.2-17.521.9c-4.958.4-9.79,1.647-14.674,1.879-6.131.292-12.314.178-18.444-.1a2.832,2.832,0,0,0-1.621.247c-.891.551-.78,1.809-.5,2.784,2.241,7.961,9.869,12.224,16.659,16.663,3.435,2.246,9.262,2.8,13.3,3.759q7.695,1.831,15.517,3.124A227.824,227.824,0,0,0,289.1,187.8a99.4,99.4,0,0,0-1.774-21.049c-.783-4.011-1.9-8.188-4.868-11.139" transform="translate(153.251 98.365)" fill="#9ba8a9"/>
            <path id="Path_38262" data-name="Path 38262" d="M199.416,212.729a47.16,47.16,0,0,1-3.017-7.448,25.865,25.865,0,0,1-1.26-14.762c1.6-7.259,6.152-13.815,14-14.859a483.9,483.9,0,0,0,66.579-13.584c6.174-8.361,13.443-14.361,20.142-22.335,2.586-3.081,5.617-5.924,7.563-9.43a106.233,106.233,0,0,1,25.172,1.482,10.977,10.977,0,0,1,3.884,6.943c.275,2.353-1.134,4.882-2.777,6.488,1.52,8.079,3.151,16.252,3.77,24.351a8.233,8.233,0,0,1-.188,3.248,7.24,7.24,0,0,1-1.17,1.983,42.623,42.623,0,0,1-6,6.4,7.716,7.716,0,0,1-5.388-5.365c-6.431-.212-11.275.091-17.007,2.281l-10.9,4.161c-27.528,10.513-49.083,30.953-78.79,36.1a17.581,17.581,0,0,1-11.2-2,10.207,10.207,0,0,1-3.414-3.65" transform="translate(140.261 82.455)" fill="#9ba8a9"/>
            <path id="Path_38263" data-name="Path 38263" d="M198.037,79.949a16.477,16.477,0,0,0-5.39-2.255,5.624,5.624,0,0,0-5.329,1.7c-1.124,1.467-1,3.472-.62,5.248a28.8,28.8,0,0,0,7.112,13.024c3.4,3.741,8.029,4.532,10.545,8.86,8.609,14.811,27.922,28.073,44.7,22.369a39.7,39.7,0,0,0,21.271-17.533,35.016,35.016,0,0,0,4.617-13.114c.609-4.934-1.325-9.815-1.23-14.776a131.986,131.986,0,0,0-2.994-30.557c-2.2-10.092-12-17.7-22.316-20.909s-21.59-2.562-32.152-.19c-4,.9-8.021,2.075-11.354,4.357-5.453,3.735-8.387,9.961-10.1,16.136-2.507,9.064-3.134,20.484,3.239,27.64" transform="translate(134.382 18.894)" fill="#9ba8a9"/>
            <path id="Path_38264" data-name="Path 38264" d="M201.339,92.184c.069-.474-4.424-3.968-5.08-4.645a12.935,12.935,0,0,0-6.491-3.571c.4-10.727-3-21.341-.189-32,1.076-4.076,4.374-7.005,7.933-9.268a90.89,90.89,0,0,1,11-5.976c3.831-1.748,8.009-2.73,11.822-4.419,3.975-1.761,7.763-3.843,11.912-5.349,2.617-.951,4.531-2.475,6.985-3.625,2.622-1.232,5.29-2.384,7.821-3.782a24.433,24.433,0,0,1,.671,11.979c-.081.355-1.074,1.2-1.3.907.1.129,6.653-1.689,7.353-1.81a53.985,53.985,0,0,1,7.556-.758,63.32,63.32,0,0,1,7.852.333c2.068.194,4.068-.346,6.2-.106-1.328,6.048-8.671,10.845-14.29,13.106,6.235,1.407,11.332,4.075,16.885,7.113a17.636,17.636,0,0,1-9.367,5.645c-4.194-3.918-8.076-7.51-12.27-11.426-2.256-2.108-12.392-1.328-15.439-1.309a86.308,86.308,0,0,0-16.8,1.76c-8.043,1.653-17.5,5.937-19.772,14.145-2.936,10.592-1.416,22.242-2.989,33.055" transform="translate(135.845 12.39)" fill="#889493"/>
            <path id="Path_38265" data-name="Path 38265" d="M205.418,81.257c-.279,4.481-.862,9.053-.821,13.542.029,2.951-1.015,7.241.5,9.847a10.557,10.557,0,0,0,3.817,3.307,82.9,82.9,0,0,0,12.249,6.653,28.679,28.679,0,0,0,13.76,2.292c2.645-9.825-1.933-19.745-1.086-29.647-2.678-2.792-6.866-4.713-10.655-5.862a71.91,71.91,0,0,0-11.7-2.17c-1.432-.185-4.732,1.51-6.066,2.039" transform="translate(147.248 50.195)" fill="#9ba8a9"/>
            <path id="Path_38266" data-name="Path 38266" d="M174.743,213.522a13.563,13.563,0,0,0,3.017,6.893c2.734,3.063,7.066,3.279,9.346-.9a12.892,12.892,0,0,0,1.28-6.309c0-.232-.017-.449-.034-.683a14.467,14.467,0,0,0-2.49-7.425,7.574,7.574,0,0,0-2.385-2.214c-2.912-1.632-6.7-.1-8.189,3.746a13.625,13.625,0,0,0-.544,6.893m1.4-5.128a5.443,5.443,0,0,1,7.05-2.614,6.393,6.393,0,0,1,1.946,1.433,8.831,8.831,0,0,1,2.244,5.344,3.378,3.378,0,0,1,.036.433,7.561,7.561,0,0,1-1.1,4.395c-1.948,2.913-5.682,2.764-8.033.632a8.764,8.764,0,0,1-2.6-4.811,7.9,7.9,0,0,1,.456-4.811" transform="translate(125.814 128.165)" fill="#d99a34"/>
            <path id="Path_38267" data-name="Path 38267" d="M158.151,212.686a12.948,12.948,0,0,0,1.3,6.311c2.263,4.179,6.611,3.962,9.348.9A13.577,13.577,0,0,0,171.813,213l.052-.4a13.466,13.466,0,0,0-.6-6.494,8.346,8.346,0,0,0-.614-1.248c-1.754-2.915-5-3.945-7.575-2.5-2.929,1.648-4.823,5.978-4.928,10.322m.983-.216c.088-3.047,1.7-6.06,4.226-7.21a5.41,5.41,0,0,1,6.348,1.549,5.174,5.174,0,0,1,.683,1.065,7.419,7.419,0,0,1,.527,4.413,3.161,3.161,0,0,1-.052.4,8.765,8.765,0,0,1-2.6,4.813c-2.349,2.13-6.085,2.281-8.031-.634a7.577,7.577,0,0,1-1.1-4.395" transform="translate(113.997 127.834)" fill="#d99a34"/>
            <path id="Path_38268" data-name="Path 38268" d="M153.118,438.579a16.843,16.843,0,0,0,2.893.849,63.523,63.523,0,0,0,19.239.632c2.6-.433,4.244-1.332,6.787-1.947,4.612-9.708,8.522-21.91,7.61-32.683a123.758,123.758,0,0,0-8.119-33.647,27.8,27.8,0,0,0-5.138-.917,54.487,54.487,0,0,0-12.223.533c-1.156.167-5.419,15.934-6.068,17.782-2.068,5.793-4.085,11.6-5.594,17.548-2.139,8.407-4.1,22.376.614,31.85" transform="translate(108.28 234.937)" fill="#2a2836"/>
            <path id="Path_38269" data-name="Path 38269" d="M153.72,439.37a63.407,63.407,0,0,0,19.237.632c2.6-.433,4.244-1.331,6.787-1.947,4.612-9.706,8.523-21.91,7.611-32.681a123.773,123.773,0,0,0-8.121-33.648,27.779,27.779,0,0,0-5.137-.915c-1.088,3.962-.86,8.607-1.07,12.07q-.816,13.062-2.49,26.055c-.334,2.648-.842,5.578-3.034,7.259a10.233,10.233,0,0,1-2.929,1.4,33.524,33.524,0,0,1-10.662,1.63,122.656,122.656,0,0,0-.193,20.146" transform="translate(110.573 234.996)" fill="#363347"/>
            <path id="Path_38270" data-name="Path 38270" d="M151.427,418.853a5.919,5.919,0,0,0,.158,1.915c.649,2.232,2.666,3.48,5.383,4.079,5.665,1.248,14.328-.384,19.781-2.2a22.9,22.9,0,0,0,3.753-1.565c2.543-1.4,3.578-4.163,3.526-6.96a273.241,273.241,0,0,0-4.192-41.556q-1.079-6.168-2.456-12.287c-.981-.982-2.315-.516-3.753-.533a56.139,56.139,0,0,0-11.187,1.033c.368,9.923.929,18.78-1.736,28.469a103.9,103.9,0,0,1-5.682,15.566,36.958,36.958,0,0,0-3.595,14.035" transform="translate(109.147 227.926)" fill="#a65632"/>
            <path id="Path_38271" data-name="Path 38271" d="M151.427,418.853a5.919,5.919,0,0,0,.158,1.915c.649,2.232,2.666,3.48,5.383,4.079a25.457,25.457,0,0,1,.334-9.041,191.894,191.894,0,0,1,11.521-37.06,4.777,4.777,0,0,1,3.368-3.248q3.787-1.573,7.646-2.929-1.079-6.168-2.456-12.287c-.981-.982-2.315-.516-3.753-.533a56.139,56.139,0,0,0-11.187,1.033c.368,9.923.929,18.78-1.736,28.469a103.9,103.9,0,0,1-5.682,15.566,36.958,36.958,0,0,0-3.595,14.035" transform="translate(109.147 227.926)" fill="#914023"/>
            <path id="Path_38272" data-name="Path 38272" d="M155.652,382.666a7.64,7.64,0,0,1,2.507-.583,37.667,37.667,0,0,1,23.763,5.427,32.179,32.179,0,0,1-1.1-7.775c-.492-6.442-7.84-9.289-14.837-9.572a24.309,24.309,0,0,0-2.717,0,9.087,9.087,0,0,0-5.875,2.063,40.444,40.444,0,0,1-1.736,10.44" transform="translate(112.199 234.562)" fill="#2a2836"/>
            <path id="Path_38273" data-name="Path 38273" d="M98.654,412.2a33.167,33.167,0,0,1-14.242,4.024c3.519-17.8,14.1-36,28.808-47.476,1.236-.962,1.568-3.411,3.147-3.633a28.6,28.6,0,0,1,12.96,1.194,77.613,77.613,0,0,1-9.576,25.707,54.83,54.83,0,0,1-21.1,20.185" transform="translate(60.847 231.216)" fill="#914023"/>
            <path id="Path_38274" data-name="Path 38274" d="M68.838,426.5a22.446,22.446,0,0,0,5.312,9.423,87.024,87.024,0,0,0,21.832.25,115.073,115.073,0,0,0,13.837-2.315,58.531,58.531,0,0,1,22.815-21.727,45.089,45.089,0,0,1,6.031-2.429,3.437,3.437,0,0,1,1.475,2.746,75.422,75.422,0,0,1,0,22.725,10.457,10.457,0,0,1,4.19.034c0-9.057.4-17.432,2.421-26.489,1.559-7.092,6.4-12.653,9.188-19.412a60.112,60.112,0,0,0-5.014-14.235,62.111,62.111,0,0,0-4.822-8.141c-1.772.549-2.421,0-4.14-.683-.471-.183-.928-.35-1.4-.5a78.072,78.072,0,0,1-9.576,25.707,54.868,54.868,0,0,1-21.113,20.178,33.255,33.255,0,0,1-14.24,4.029c-.036.2-.089.4-.122.6a114.751,114.751,0,0,1-12.364,5.71c-4.614,1.715-10.05,2.114-14.309,4.529" transform="translate(49.621 231.786)" fill="#2a2836"/>
            <path id="Path_38275" data-name="Path 38275" d="M121.809,387.257l-20.984-6.573c-2.731-.854-5.2-2.1-8.071-2.189,3-3.594,6.269-7.059,8.9-10.909a68.43,68.43,0,0,1,23.386,15.123c-1.437,1.578-2.511,2.575-3.23,4.547" transform="translate(66.86 232.954)" fill="#2a2836"/>
            <path id="Path_38276" data-name="Path 38276" d="M8.462,189.022c1.368,1.665,2.683.283,3.507-1.348.578-1.15,1.158-2.3,1.771-3.431.124-.232.246-.449.368-.683a42.468,42.468,0,0,1,7.331-9.722c1.631-1.581,5.192-2.813,5.577-5.295.7-4.511-6.209-1.4-7.926-.149a48.153,48.153,0,0,0-5.4,4.378,20.747,20.747,0,0,0-3.368,4.1c-1.666,2.73-4.226,9.257-1.859,12.153" transform="translate(5.408 105.315)" fill="#914023"/>
            <path id="Path_38277" data-name="Path 38277" d="M55.051,163.864a12.673,12.673,0,0,0,3.858-2.88c19.447,6.893,40.913,11.6,61.133,16.066,2.963-9.106-.124-20.378-5.121-28.653-4.77-.467-9.558-.949-14.328-1.415q-20.387-2-40.789-4a26.582,26.582,0,0,0-8.523.067,2.156,2.156,0,0,0-.315.065c-1.509,7.076.4,14.07,4.085,20.745" transform="translate(36.364 90.416)" fill="#37303d"/>
            <path id="Path_38278" data-name="Path 38278" d="M25.122,172.245c1.334,2.563,8.312,2.965,10.889,3.346,6.489.933,13.03,1.366,19.59,1.715a13.49,13.49,0,0,0,4.085-.167,2.751,2.751,0,0,0,1.507-.933q3.789-4.943,7.577-9.922a38.278,38.278,0,0,1,3.051-3.645c2.929-3,2.139-8.259,1.122-12.237-.1-.417-.227-.817-.334-1.2-1.63-5.661-13.4-7.742-18.745-7.675-11.172.15-19.8,13.436-25.131,21.261-1.349,1.98-4.892,6.991-3.612,9.454" transform="translate(17.911 89.692)" fill="#a65632"/>
            <path id="Path_38279" data-name="Path 38279" d="M41.824,155.434A121.92,121.92,0,0,0,48.1,173.7a2.772,2.772,0,0,0,1.509-.931q3.787-4.945,7.575-9.923a38.767,38.767,0,0,1,3.051-3.647c2.929-3,2.141-8.257,1.122-12.237a7.753,7.753,0,0,1-2.507,3.945c-2.261,1.431-6.19.1-8.417-.667-3.053-1.049-6.455-2.23-9.4-.966a13.782,13.782,0,0,0,.79,6.161" transform="translate(29.496 93.134)" fill="#914023"/>
            <path id="Path_38280" data-name="Path 38280" d="M8.284,164.168a124.519,124.519,0,0,0,8.855,16.666,99.314,99.314,0,0,0,7.05,9.923c.79,1.015,1.614,2,2.456,2.964,1.156-.384,2.315-.766,3.454-1.166q26.726-8.891,52.277-19.18c1.28-.515,2.543-1.031,3.8-1.547a141.35,141.35,0,0,0-10.451-15.8c-1.053-1.366-2.122-2.7-3.245-4-1.28-1.532-2.612-3.013-3.98-4.429-.964.217-1.929.417-2.893.65-18.571,4.128-37.091,9.306-55.54,15.333-.6.183-1.191.384-1.788.583" transform="translate(5.971 93.541)" fill="#302e42"/>
            <path id="Path_38281" data-name="Path 38281" d="M9.324,163.333a56.669,56.669,0,0,1,5.839,8.724,16.86,16.86,0,0,1,4-.567c1.771,2.864,3.683,5.828,5.243,8.791.368.683-1.351,1.082-1.351,1.848,1.929,3.081,3.875,6.277,5.8,9.356.176.266.334.551.492.817q26.726-8.891,52.275-19.18A158.924,158.924,0,0,0,64.862,148c-18.571,4.13-37.089,9.307-55.538,15.334" transform="translate(6.721 93.792)" fill="#29abe2"/>
            <path id="Path_38282" data-name="Path 38282" d="M7.887,162.421c4.173,10.6,10.977,20.729,17.7,29.968a510.3,510.3,0,0,0,59.992-24.441l.895-2.547q-28.962,11.888-59.537,21.894A116.742,116.742,0,0,1,8.57,157.742Z" transform="translate(5.685 99.967)" fill="#222133"/>
            <path id="Path_38283" data-name="Path 38283" d="M53.407,142.019c-2.867.044-5.469,1.518-7.859,3.019-4.034,2.534-7.931,5.283-12.182,7.474A31.562,31.562,0,0,1,19.6,156.42c-.339,1.626-.224,3.222,1.21,4.169a10.025,10.025,0,0,0,4.965,1.372,22.909,22.909,0,0,0,8.6-1.149c4.01-1.349,7.924-4.024,11.531-6.167a12.017,12.017,0,0,0,4.35-3.624c1.576-2.567,3.282-6.037,3.149-9" transform="translate(14.012 90.003)" fill="#a65632"/>
            <path id="Path_38284" data-name="Path 38284" d="M28.812,171.675a2.68,2.68,0,0,0-3.552-.26c-2.387,1.621-1.587,6.734-.778,8.891a4.624,4.624,0,0,0,2.2,2.743,3.769,3.769,0,0,0,1.49.314c5.309.116,3.633-4.37,2.784-7.927a7.83,7.83,0,0,0-2.149-3.761" transform="translate(17.064 108.281)" fill="#a65632"/>
            <path id="Path_38285" data-name="Path 38285" d="M37.172,170.195a6.012,6.012,0,0,0-.919-2.222,2.581,2.581,0,0,0-2.136-1.088c-1.433.091-2.244,1.585-2.636,2.9a26.626,26.626,0,0,0-.752,10.413,2.718,2.718,0,0,0,.38,1.312,2.28,2.28,0,0,0,1.11.755c7.711,2.8,5.756-8.819,4.953-12.067" transform="translate(22.012 105.758)" fill="#a65632"/>
            <path id="Path_38286" data-name="Path 38286" d="M43.537,167.251a1.958,1.958,0,0,0-.5-.488c-2.4-1.627-8.919,10.309-4.431,10.743,3.745.361,5.67-6.146,5.46-8.6a3.327,3.327,0,0,0-.533-1.65" transform="translate(26.722 105.587)" fill="#a65632"/>
            <g id="Group_141202" data-name="Group 141202" transform="translate(23.112 245.572)" style="mix-blend-mode: screen;isolation: isolate">
              <g id="Group_141201" data-name="Group 141201">
                <g id="Group_141200" data-name="Group 141200" clip-path="url(#clip-path-31)">
                  <g id="Group_141199" data-name="Group 141199" transform="translate(-0.001 0)">
                    <g id="Group_141198" data-name="Group 141198" clip-path="url(#clip-path-32)">
                      <path id="Path_38361" data-name="Path 38361" d="M0,0,70.289,1.618,71.777,64.8,1.488,63.18Z" transform="translate(-18.288 10.792) rotate(-31.864)" fill="url(#linear-gradient-23)"/>
                    </g>
                  </g>
                </g>
              </g>
            </g>
            <path id="Path_38288" data-name="Path 38288" d="M8.462,186.465c1.368,1.665,2.683.283,3.507-1.348.578-1.15,1.158-2.3,1.771-3.431a22.887,22.887,0,0,0-.052-11.47,20.746,20.746,0,0,0-3.368,4.1c-1.666,2.73-4.226,9.257-1.859,12.153" transform="translate(5.408 107.872)" fill="#a65632"/>
            <path id="Path_38289" data-name="Path 38289" d="M168.7,165.656c4.736,23.941,8.646,47.965,12.609,72.04a6.507,6.507,0,0,0,4.892.616,1.9,1.9,0,0,0,1.6-2c-1.685-18.546-2.946-37.592-6.506-56.022a170.956,170.956,0,0,0-6.734-25.107c-3.368,2.931-6.716,6.193-5.858,10.472" transform="translate(121.508 98.346)" fill="#2a2836"/>
            <path id="Path_38290" data-name="Path 38290" d="M84.443,313.229c5.19,24.457,10.189,49.331,19.922,72.59,3.437,4.378,6.014,9.222,10.731,12.336a276.865,276.865,0,0,1,3.509,78.883c4.032,1.082,8.258,2.063,12.538,2.8a78.307,78.307,0,0,0,14.5,1.2c-4.4-21.943-.158-42.137,2.21-63.9,1.139-10.454,2.3-21.01.929-31.449-1.385-10.44-4.946-21.859-12.942-29.136a621.547,621.547,0,0,1-.281-83.994c.071-1.165.158-2.313.246-3.48,19.815,36.6,47.8,78.5,55.468,112.481-1.859,31.049,17.642,61.352,21.43,92.234a10.761,10.761,0,0,0,7.314,4.079c5.137.583,10.785-2.248,14.625-5.744q-.449-27.344-.317-54.707c.036-7.925,2-18.214-.193-25.823-1.963-6.76-9.54-13.735-10.223-20.646a809.5,809.5,0,0,0-14.381-91.1c-5.873-27.105-11.433-56.191-23.691-81.414-.86-1.748-1.736-3.464-2.648-5.177-33.582,10.954-69.69,16.631-105.184,17.9a356.891,356.891,0,0,0,6.436,102.074" transform="translate(55.409 122.474)" fill="#633937"/>
            <path id="Path_38291" data-name="Path 38291" d="M78.007,211.155c35.494-1.265,71.6-6.943,105.184-17.9.912,1.715,1.788,3.429,2.648,5.177-.1.634-.246,1.216-.385,1.766a219.013,219.013,0,0,1-31.25,19.794c-2.946,1.532-3.578,4.329-6.629,5.628,7.838,51.762,37.423,99.011,48.681,150.189,1.526,6.976,10.328,10.806,17.169,10.489,2.3-.116,4.8-.8,6.032-2.663.931,1.732,3.4,3.08,3.263,5.029-.6,8.424-7.382,12.836-11.433,20.361,3.122,23.475,5.663,45.518,8.733,68.844a10.774,10.774,0,0,1-7.314-4.079c-3.788-30.884-23.288-61.185-21.43-92.236-4.226-18.742-13.092-36.449-22.2-53.436-5.066-9.451-10.4-18.772-15.753-28.081-5.042-8.765-9.442-18.646-15.608-26.7-1.1-1.443-2.16-2.931-3.213-4.424-3.989,3.063-7.907,6.192-12.027,9.106-.566.4-2.414,1.472-4.589,2.754-7.455,22.3-5.493,49.045-2.951,71.827.981,8.807,4.068,15.318,6.98,23.542a10.512,10.512,0,0,0,2.366,4.329c3.139,3.013,8.664,1.681,12.645,3.612a47.058,47.058,0,0,1-7.611,15c-.666,26.622.141,54.077,1.824,80.747-4.28-.732-8.506-1.715-12.538-2.8a276.865,276.865,0,0,0-3.509-78.883c-4.717-3.112-7.295-7.958-10.731-12.336-9.733-23.26-14.73-48.132-19.922-72.59a356.888,356.888,0,0,1-6.436-102.074" transform="translate(55.409 122.474)" fill="#4d2828"/>
            <path id="Path_38292" data-name="Path 38292" d="M117.9,92.082c-1.007,19.716,27.872,17.166,26.848,1.065h.017c.036-2.5.071-4.994.088-7.492.053-5.543-6.962-8.706-12.45-10.572a11.964,11.964,0,0,0-4.56-.766c-2.173.15-5.734,1.6-6.856,3.531-1,1.732-.965,4.712-1.4,6.675-.561,2.514-1.122,5.029-1.683,7.559" transform="translate(84.965 47.087)" fill="#914023"/>
            <path id="Path_38293" data-name="Path 38293" d="M75.374,270.058c-.122.516,1.07,2.331,1.544,2.047,5,3.2,11.275,3.864,17.291,4.163a196.387,196.387,0,0,0,32.811-1.149,195.451,195.451,0,0,0,24.446-4.5c9.556-2.4,17.554-5.21,25.831-10.954a19.489,19.489,0,0,0,6.049-6.594,302.741,302.741,0,0,0-22.674-51.794h-.017a1.687,1.687,0,0,0-.124-.25,6.072,6.072,0,0,0,2.507-2.563c.3-.5.563-1.016.824-1.5a24.824,24.824,0,0,0-2.454-4.047,350.094,350.094,0,0,0,35.511-34.629c4.314-4.878,8.523-9.907,11.645-15.568,3.751-6.809,5.927-14.284,4.7-21.993-.473-3.029-1.473-6.176-4.139-7.924-3.35-2.2-7.19-4.063-10.716-6.027-7.592-4.23-15.327-8.192-23.13-12.055a16.208,16.208,0,0,1,.332-3.911c.071-.234.141-.449.21-.683.036-.083.053-.167.088-.25a6,6,0,0,0,.561-1.864,1.623,1.623,0,0,0-1.069-1.732c-.28.132-.578.266-.878.4-8.821,3.846-24.252,4.563-25.988-1.465-.141-.1-.368-.049-.544-.065a4.8,4.8,0,0,0-3.156.848,10.644,10.644,0,0,1,1.666,5.346,17.241,17.241,0,0,1-.053,3.163c-.034.15-.071.317-.1.466A281.775,281.775,0,0,0,106.1,112.342a89.083,89.083,0,0,0-8.575,28.321,161.368,161.368,0,0,0-20.8,26.437,55.446,55.446,0,0,0,16.431,21.345,107.13,107.13,0,0,0,7.821,21.694c-10.223,19.146-20.5,39.009-25.6,59.919" transform="translate(54.326 53.946)" fill="#4d3f54"/>
            <path id="Path_38294" data-name="Path 38294" d="M129.483,153.543c3.054.484,6.066-.879,8.8-2.263a185.236,185.236,0,0,0,16.579-9.525,4.056,4.056,0,0,0,1.5-1.38,3.73,3.73,0,0,0,.189-2.207,93.054,93.054,0,0,0-3.122-15.081c-.47-1.588-.824-5.6-3.091-5.035-1.378.343-3.657,5.542-4.411,6.746q-8.8,14.067-16.443,28.746" transform="translate(93.336 74.78)" fill="#37303d"/>
            <path id="Path_38295" data-name="Path 38295" d="M142.457,134.969c4.121,26.689,17.922,53.542,33.635,75.719,1.893,2.681,12.258,16.367,16.379,12.037a139.862,139.862,0,0,0,17.747-23.042,141.8,141.8,0,0,0,12.223-25.14c.122-.266.21-.549.315-.815,1.6-4.395,2.982-8.858,4.158-13.352.578-2.248,1.1-4.5,1.578-6.759.473-2.2.525-4.73,1.7-6.693a5.3,5.3,0,0,0,1.122-2.447c.053-1.3-1.139-2.281-2.3-2.98a26.542,26.542,0,0,0-4.646-2.148c-.578-.216-1.175-.4-1.771-.583-1.895-.565-7.243-2.513-8.4,0a2.094,2.094,0,0,0-.1,1.183,22.6,22.6,0,0,0,.527,2.264,3.7,3.7,0,0,1-.685,2.181c-1.6,3.23-2.717,6.393-4.595,9.523a61.041,61.041,0,0,1-7.136,9.806c-3.175,3.447-6.928,6.411-9.767,10.123a40.827,40.827,0,0,0-4.719,8.175q-.367.823-.737,1.648c-.034.083-.071.167-.1.25-.3.683-.578,1.364-.876,2.063-.158-1.931-.4-3.846-.719-5.761-1.473-8.69-4.419-17.282-6.594-25.772-2.7-10.556-5.436-21.111-8.592-31.565-.878-2.864-1.772-5.744-2.719-8.592C165.5,108.7,162.221,99.389,154,101.8c-4.051,1.2-6.839,4.744-8.627,8.391a36.625,36.625,0,0,0-3.473,13.936,52.183,52.183,0,0,0,.561,10.838" transform="translate(102.228 64.269)" fill="#4d3f54"/>
            <path id="Path_38296" data-name="Path 38296" d="M168.533,179.238c2.419-6.826,7.382-12.5,11.679-18.447,6.19-8.575,11.118-18.548,16.011-27.837,2.21-.067,4.419.083,6.629-.016a15.229,15.229,0,0,0,6.384-1.465,12.174,12.174,0,0,0-3.77-6.126c-.58-.217-1.175-.4-1.772-.583-1.893-.567-7.241-2.514-8.4,0a2.078,2.078,0,0,0-.1,1.183,22.44,22.44,0,0,0,.527,2.263,3.7,3.7,0,0,1-.685,2.181c-1.6,3.23-2.717,6.394-4.595,9.523a61.124,61.124,0,0,1-7.136,9.807c-3.175,3.446-6.928,6.409-9.769,10.123a40.808,40.808,0,0,0-4.717,8.174q-.369.826-.736,1.648a72.939,72.939,0,0,0,.456,9.574" transform="translate(121.135 78.272)" fill="#37303d"/>
            <path id="Path_38297" data-name="Path 38297" d="M142.457,126.156c4.121,26.689,17.922,53.542,33.635,75.719,1.893,2.681,12.258,16.367,16.379,12.037a139.861,139.861,0,0,0,17.747-23.042,141.8,141.8,0,0,0,12.223-25.14,143.881,143.881,0,0,0-16.484,13.47c-2.509,2.4-4.946,4.877-7.279,7.458-.368.4-6.646,5.944-6.873,4.8-1-5.061-2.017-10.123-3.017-15.184a9.982,9.982,0,0,0-1.07-3.063,3.247,3.247,0,0,0-2.437-1.8,77.728,77.728,0,0,1-3.368,8.708c-1.07,2.3-2.8,4.911-5.471,4.862-1.7-.016-3.141-1.183-4.314-2.364a56.762,56.762,0,0,1-8.645-12.054,188.247,188.247,0,0,1-15.223-33.8c-1.929-5.761-3.4-11.6-4.91-17.465a16.523,16.523,0,0,0-1.456-3.978,52.183,52.183,0,0,0,.561,10.838" transform="translate(102.228 73.081)" fill="#37303d"/>
            <path id="Path_38298" data-name="Path 38298" d="M182.006,123.755a17.454,17.454,0,0,0,.334,3.313,43.842,43.842,0,0,0,1.139,4.728c.1.384.21.783.315,1.165.79,2.864,1.58,5.712,2.385,8.576.439,1.63.895,3.246,1.351,4.878.334,1.248.439,2.513,1.368,3.5.071.065.141.149.227.216a7.749,7.749,0,0,0,2.614,1.366,14.647,14.647,0,0,0,3.963.866,14.317,14.317,0,0,0,2.122.033,2.311,2.311,0,0,0,1.4-.449c.334-.35.439-1.348.6-1.815.193-.582.4-1.165.613-1.748.439-1.215.912-2.413,1.4-3.612.981-2.4,2.034-4.779,3.034-7.159a58.059,58.059,0,0,0,4.507-14.668c1.4-10.673-4.192-20.9-9.348-30.484A10.429,10.429,0,0,0,189.986,93c-1.965,5.761-3.736,11.57-5.175,17.465-.28,1.165-.63,2.415-1,3.7-.878,3.214-1.824,6.661-1.807,9.59" transform="translate(131.196 57.935)" fill="#a65632"/>
            <path id="Path_38299" data-name="Path 38299" d="M189.486,129.494c.385,1.8.721,3.612.971,5.453a22.935,22.935,0,0,1,4.345-4.48,26.279,26.279,0,0,0,8.317-11.06,14.1,14.1,0,0,0,1.564-5.172,12.407,12.407,0,0,0-.817-4.238,63.078,63.078,0,0,0-6.1-13.142c-1.232-2.018-2.968-4.2-5.563-4.4-7.463-.552-7.72,9.925-7.455,13.988.521,7.956,3.084,15.355,4.734,23.047" transform="translate(133.131 58.581)" fill="#914023"/>
            <path id="Path_38300" data-name="Path 38300" d="M177.988,104.442a25.894,25.894,0,0,0,1.175,3.629c.683,1.616,1.7,3.031,3.156,2.831a2.358,2.358,0,0,0,.685-.183,2.9,2.9,0,0,0,1.315-1.282,11.527,11.527,0,0,0,1.034-5.161,24.515,24.515,0,0,0-.122-2.813c-.317-3.281-1.263-7.092-3.614-9.641a2.117,2.117,0,0,0-1.542-.848,1.721,1.721,0,0,0-.929.315,4.554,4.554,0,0,0-1.755,2.947c-.805,3.663-.368,6.594.6,10.206" transform="translate(127.567 57.653)" fill="#a65632"/>
            <path id="Path_38301" data-name="Path 38301" d="M178.546,103.361a19.619,19.619,0,0,1,.193,2.864,31.363,31.363,0,0,0,.281,6.659c.036.167.088.333.141.5a12.888,12.888,0,0,0,1.156,2.413c.492.85.965,1.7,1.421,2.565,1.244,2.281,2.4,4.578,3.507,6.909.508,1.082,1.07,2.165,1.561,3.263.21.451.385.882.561,1.333a17.809,17.809,0,0,0,2.351,4.478,1.372,1.372,0,0,0,.876.632.794.794,0,0,0,.7-.283,2.4,2.4,0,0,0,.508-1.082,28.922,28.922,0,0,0-.176-12.854,30.789,30.789,0,0,0-2.051-5.511c-.422-.9-.509-1.964-.878-2.9a8.068,8.068,0,0,0-1-2.23c-.3-.351-.492-.435-.7-.417a.664.664,0,0,0-.176.033,1.908,1.908,0,0,1-.841.134c-1.3-.118-1.982-2.2-2.175-3.2a8.092,8.092,0,0,1-.1-1.947c.053-.7.158-1.4.263-2.049a8.517,8.517,0,0,0,.351-2.83,2.1,2.1,0,0,0-.071-.317,1.539,1.539,0,0,0-1.175-1.116,2.516,2.516,0,0,0-1.4.384,39.379,39.379,0,0,1-3.841,1.215,24.132,24.132,0,0,1,.719,3.346" transform="translate(128.184 62.362)" fill="#a65632"/>
            <path id="Path_38302" data-name="Path 38302" d="M180.9,87.989c.946.8,1.929,1.532,2.841,2.181,2.263,1.614,4.577,3.179,6.892,4.744,2.068,1.4,2.841,2.614,4.3,4.663a12.973,12.973,0,0,0,4.576,4.012h.019a9.32,9.32,0,0,0,1.086.533c.948.4,2.385,1.165,3.1.417a2.285,2.285,0,0,0,.456-2.116,8.063,8.063,0,0,0-1.156-2.763h-.019a36.036,36.036,0,0,0-3.8-4.945,52.125,52.125,0,0,0-6.155-6.143c-1.649-1.4-3.051-3.031-4.822-4.279a64.179,64.179,0,0,1-6.945-5.545,5.833,5.833,0,0,0-1.507-1.148,1.937,1.937,0,0,0-1.86.067,1.975,1.975,0,0,0-.63.866c-1.755,3.779.718,6.976,3.629,9.456" transform="translate(127.359 49.049)" fill="#a65632"/>
            <path id="Path_38303" data-name="Path 38303" d="M179.132,83.88c.946.8,1.929,1.532,2.841,2.181,2.263,1.614,4.577,3.179,6.892,4.744,2.068,1.4,2.841,2.614,4.3,4.663a12.973,12.973,0,0,0,4.576,4.012h.019a6.116,6.116,0,0,0,3.788-.417,2.919,2.919,0,0,0,.859-.75c.544-.632.895-1.514.351-2.114a3.653,3.653,0,0,0-1.507-.649h-.019a15.64,15.64,0,0,1-2.332-.734c-6.594-3.663-13.17-7.291-19.764-10.938" transform="translate(129.124 53.158)" fill="#914023"/>
            <path id="Path_38304" data-name="Path 38304" d="M198.446,107.439l-.191,0a32.06,32.06,0,0,1-9.237-1.392,8.216,8.216,0,0,1-3.216-1.609,3.041,3.041,0,0,1-.99-3.161c.138-.374,5.481-.923,6.3-1.011a27.9,27.9,0,0,0,6.871-1.622c-4.662.163-9.49-.162-13.66-2.147-1.241-.59-3.259-1.88-2.767-3.553.246-.84,1.4-1,2.321-1.024a53.49,53.49,0,0,0,8.812-.957,20.8,20.8,0,0,1,5.218-.645,10.753,10.753,0,0,1,6.123,2.862,3.461,3.461,0,0,1,.826,1,3.1,3.1,0,0,1,.255,1.385,7.733,7.733,0,0,1-.819,3.421c3.825,2.081,3.868,5.761,3.39,9.4.069-.564-8.611-.936-9.237-.941" transform="translate(130.818 57.224)" fill="#a65632"/>
            <path id="Path_38305" data-name="Path 38305" d="M201.793,108.776c-4.865.869-13.013,1.215-14.976-3.207a1.943,1.943,0,0,1-.207-1.078,2.381,2.381,0,0,1,1.607-1.6,9.258,9.258,0,0,1,2.543-.464c2.6-.227,5.2-.449,7.8-.477,2.127-.025,5.409-.279,6.374,1.485a7.319,7.319,0,0,1,.656,5.406c-2.313.376-1.683.652-3.793-.069" transform="translate(134.504 64.595)" fill="#a65632"/>
            <path id="Path_38306" data-name="Path 38306" d="M159.907,242.61c2.263.234,4.051.449,6-.484a8.664,8.664,0,0,0,2.07-1.431,527.241,527.241,0,0,1,4.507-64.98c1.069-8.208,2.3-16.334,3.683-24.276.332-1.931-.878-3.013-2-4.645a3.173,3.173,0,0,0-3.192,1.565c-8.348,17.965-8.873,39.076-10.241,58.671-.878,12.454-1.929,23.16-.824,35.58" transform="translate(114.924 92.999)" fill="#2a2836"/>
            <path id="Path_38307" data-name="Path 38307" d="M152.619,314.6c15.976,2.38,35.284,1.5,51.453,1.831,5.524.116,11.153.016,15.975-2.547a26.024,26.024,0,0,0,5.384-3.913c.824-.732,1.631-1.514,2.4-2.3.754-.75,1.49-1.516,2.227-2.281a212.652,212.652,0,0,0,.58-22.343c0-.284,0-.551-.019-.833-.6-22.51-4.663-44.186-11.258-66.612a361.309,361.309,0,0,0-66.342-5.378c-5.663,34.114-4.629,69.476-.4,104.373" transform="translate(107.482 133.212)" fill="#2a2836"/>
            <path id="Path_38308" data-name="Path 38308" d="M165.7,278.078c5.016.6,9.54,1.117,13.8,1.515a171.993,171.993,0,0,0,28.533.667c3.98-.25,8.188-.667,12.8-1.247a21.7,21.7,0,0,0,5.068-1.3V277.7c.122-.051.227-.118.332-.167,2.141-1.25,1.772-2.514,3.053-4.545-5.1-18.763-8.506-37.411-13.608-56.174a175.447,175.447,0,0,0-58.66-6.127v.152c-.263,15.615,2.437,54.956,8.68,67.243" transform="translate(113.169 133.3)" fill="#363347"/>
            <path id="Path_38309" data-name="Path 38309" d="M75.374,270.058c-.122.516,1.07,2.331,1.544,2.047,5,3.2,11.275,3.864,17.291,4.163a196.387,196.387,0,0,0,32.811-1.149c5.787-1.4,11.17-3.513,15.66-7.442-8.838-2.348-18.186-5.212-24.673-11.389,2.8-16.016,7.768-32.232,13.257-47.632a72.1,72.1,0,0,1,12.855-3.114c-.1-.85-1.1-2.081-1.193-2.931-3.894-.565-7.419-1.464-11.294-2.031,5.507-2.547,11.223-3.913,16.537-6.842a47.468,47.468,0,0,0-5.84-2.1,38.925,38.925,0,0,1-4.19-5.944c-2.614-5.728-5.28-11.5-7.331-17.448.088-.083.193-.167.281-.25-6.209-.016-12.574-1.215-18.676-2.431-1-.217-2.21-.616-2.333-1.6a2.136,2.136,0,0,1,.334-1.149c3.7-7.293,12.048-11.206,19.957-14.253,8.313-3.2,16.8-6.01,25.393-8.424,2.877-.8,8.909-3.531,12.206-3.2.1-.1.227-.183.334-.266,2.578-8.125,5.682-17.331,8.26-25.439a79.381,79.381,0,0,0-15.45-10.84c0-1.514-.053-4.029-.053-5.527,4.858-1.348,9.7-2.714,14.555-4.061.158-.051.334-.083.492-.134a6.754,6.754,0,0,0-.194-.8,12.2,12.2,0,0,0-1.385-3.2c-8.821,3.846-24.252,4.563-25.988-1.465-.141-.1-.368-.049-.544-.065a4.8,4.8,0,0,0-3.156.848,10.644,10.644,0,0,1,1.666,5.346,17.241,17.241,0,0,1-.053,3.163c-.034.15-.071.317-.1.466-.368.118-.737.25-1.1.384a1.707,1.707,0,0,1-.088.315c-6.453,4.246-13.784,7.126-21.027,9.956q-8.312,3.272-16.642,6.527c-2.49,8.874-5.576,19.113-6.961,28.2-8.067,9.074-14.608,17.416-21.256,25.756,4.753,7.059,9.945,14.635,15.52,21.611,3.858,4.811,4.1,11.5,6.016,17.265.508,1.514,1,3.013,1.507,4.529C93.4,229.086,84.387,250.012,75.5,269.609a4.355,4.355,0,0,0-.122.449" transform="translate(54.326 53.946)" fill="#37303d"/>
            <path id="Path_38310" data-name="Path 38310" d="M112.23,161.58q10.049-2,20.115-3.978c.6-.118,1.156-.217,1.736-.284a1.689,1.689,0,0,0-.124-.25,6.076,6.076,0,0,0,2.509-2.563,21.506,21.506,0,0,0-5.7.9c-4.438,1.232-8.857,2.482-13.293,3.73a12.156,12.156,0,0,0-5.243,2.447" transform="translate(80.899 97.91)" fill="#37303d"/>
            <path id="Path_38311" data-name="Path 38311" d="M180.1,110.62c1.246,2.281,2.4,4.578,3.507,6.909.509,1.083,1.07,2.165,1.561,3.264.79,2.862,1.578,5.71,2.385,8.574.439,1.63.895,3.246,1.351,4.878.332,1.248.439,2.513,1.368,3.5a2.75,2.75,0,0,0,.227.216,7.75,7.75,0,0,0,2.614,1.366,14.634,14.634,0,0,0,3.963.866,14.312,14.312,0,0,0,2.122.033,33.531,33.531,0,0,1-3.7-1.732,9.542,9.542,0,0,1-2.948-2.23c-1.156-1.449-1.454-3.364-1.822-5.161a42.249,42.249,0,0,0-1.07-4.146,43.5,43.5,0,0,0-5.77-11.8,2.013,2.013,0,0,0-.176-.25,27.636,27.636,0,0,0-3.612-4.279" transform="translate(129.822 70.104)" fill="#914023"/>
            <path id="Path_38312" data-name="Path 38312" d="M179.863,108.089a1.654,1.654,0,0,0,.6.649,43.025,43.025,0,0,0,4,2.8c.158.1.368.2.527.118a.529.529,0,0,0,.21-.35c.158-.683.3-1.366.385-2.049a.619.619,0,0,0-.176.034,1.911,1.911,0,0,1-.841.132c-1.3-.116-1.981-2.2-2.175-3.2a8.105,8.105,0,0,1-.1-1.949,11.522,11.522,0,0,0,1.036-5.161.993.993,0,0,0-.422.283,2.019,2.019,0,0,0-.385.433c-1.122,1.516-1.7,3.9-2.227,5.911-.124.449-.229.9-.351,1.3a1.546,1.546,0,0,0-.071,1.049" transform="translate(129.603 62.813)" fill="#914023"/>
            <path id="Path_38313" data-name="Path 38313" d="M50.932,143.052a44.791,44.791,0,0,0,7.085,6.21,27.355,27.355,0,0,0,5.787,3.6,27.6,27.6,0,0,0,6.26,1.516q12.153,1.9,24.412,3.013c3.085.284,6.26.516,9.224-.366a1.795,1.795,0,0,0,1.139-3.063,28.887,28.887,0,0,0-4.595-6.976l-40.789-4a26.629,26.629,0,0,0-8.523.067" transform="translate(36.714 90.416)" fill="#4d3f54"/>
            <path id="Path_38314" data-name="Path 38314" d="M74.252,206.178c2.05,8.076,1.91,10.922,2.647,17.847,8.086,3.3,40.739,5.029,59.783,1.2a217.594,217.594,0,0,0,33.916-9.472l.015-.016A86.724,86.724,0,0,0,187.1,207.56a42.419,42.419,0,0,0,3.753-2.73,195.079,195.079,0,0,1-5.772-19.414c-.052-.2-.1-.4-.155-.6a2.141,2.141,0,0,0-1.914.433c-12.469,11.454-30.968,16.333-48.595,19.231q-4.262.7-8.415,1.265a129.241,129.241,0,0,1-40.773-.766c-2.58-.482-5.138-1.015-7.7-1.648,0-.482.456-1.63.456-2.13a5.34,5.34,0,0,0-3.316.866A2.392,2.392,0,0,0,74,203.448a7.082,7.082,0,0,0,.248,2.73" transform="translate(53.309 117.078)" fill="#2a2836"/>
            <path id="Path_38315" data-name="Path 38315" d="M126.059,195.562c1.069.8,2.8-.116,3.946.583a2.946,2.946,0,0,1,.893,1.049,46.276,46.276,0,0,1,4.717,11,3.638,3.638,0,0,1,.124,2.2,3.4,3.4,0,0,1-.721,1.132,14.7,14.7,0,0,1-1.963,1.9,86.71,86.71,0,0,0,16.484-8.175c.246-.167.494-.333.738-.516a1.185,1.185,0,0,0,.63-.815c-1.735-.083-3.645-.234-4.858-1.433a6.533,6.533,0,0,1-1.28-2.1c-.945-2.081-1.876-4.161-2.8-6.259a8.532,8.532,0,0,1-1-3.348c-.017-1.232,1.507-2.947-.527-2.23A45.763,45.763,0,0,0,135.754,191q-4.786,2.421-9.7,4.561" transform="translate(90.868 119.386)" fill="#363347"/>
            <path id="Path_38316" data-name="Path 38316" d="M87.823,200.074c.385,2.581.895,5.145,1.507,7.726.334,1.464.7,2.913,1.088,4.362.878,3.331,1.877,6.626,2.912,9.855a97.086,97.086,0,0,0,23.254-.065c.983-.134,1.946-.3,2.858-.5l1.649-1.7c-1.7-7.708-3.263-14.383-4.385-22.126-.034-.183-.052-.366-.088-.551-9.311.9-16.993,1.114-25.076,1.132-1.158,0-2.736,1.3-3.719,1.864" transform="translate(63.306 124.896)" fill="#d99a34"/>
            <path id="Path_38317" data-name="Path 38317" d="M88.7,207.587c.334,1.465.7,2.913,1.088,4.362a68.712,68.712,0,0,0,10.8,4.561c4.7,1.382,9.418,2.764,14.118,4.163a1.93,1.93,0,0,1,.946.466,1.484,1.484,0,0,1,.3.6c.983-.132,1.948-.3,2.858-.5l1.65-1.7c-1.7-7.708-3.263-14.385-4.385-22.127a11.833,11.833,0,0,1-2.053,1.549,144.714,144.714,0,0,1,2.192,14.8c.124,1.165.193,2.5-.649,3.346a3.889,3.889,0,0,1-2.349.917c-6.05.732-11.82-2.248-17.028-5.228a35.8,35.8,0,0,1-7.489-5.212" transform="translate(63.937 125.109)" fill="#bd8224"/>
            <path id="Path_38318" data-name="Path 38318" d="M103.853,198.978a114.809,114.809,0,0,1,3.507,20.113q4.367,1,8.682,2.3c2.629.766,5.224,1.63,7.8,2.563.387.15.79.281,1.175.433a21.179,21.179,0,0,1,6.821,3.4,1.31,1.31,0,0,0,.86.332,4.7,4.7,0,0,0,.859,0,33.537,33.537,0,0,0,3.806-23.341c-3.07-2.614-7.174-3.679-11.137-4.594a76.856,76.856,0,0,0-16.238-2.465,37.15,37.15,0,0,0-4.911.216c-.578.067-.718.768-1.227,1.049" transform="translate(74.861 125.293)" fill="#2a2836"/>
            <path id="Path_38319" data-name="Path 38319" d="M110.935,220.677c2.631.766,5.226,1.632,7.8,2.563.385.15.788.284,1.175.433a15.8,15.8,0,0,1-.79-2.929c-.456-2.915.983-5.445,1.49-8.275.561-3.2,1.122-6.376,1.7-9.556a1.42,1.42,0,0,1,.649-1.166,1.445,1.445,0,0,1,.841-.033,13.159,13.159,0,0,1,2.385.632c-3.56-1.549-7.243-3.263-11.118-3.513a.551.551,0,0,0-.4.067c-.107.083-.124.283.017.332.841,1.166.807,2.581.895,4a51.9,51.9,0,0,1-.737,11.871,9.9,9.9,0,0,1-1.211,3.646,4.34,4.34,0,0,1-2.7,1.931" transform="translate(79.966 126.003)" fill="#363347"/>
            <path id="Path_38320" data-name="Path 38320" d="M134.128,211.678a37.92,37.92,0,0,1-4,16.432,4.876,4.876,0,0,0,.86,0,33.528,33.528,0,0,0,3.8-23.341c-3.068-2.614-7.172-3.679-11.136-4.6a77.067,77.067,0,0,0-16.24-2.464c7.962,2.065,16.5,2.514,23.641,6.409a7.145,7.145,0,0,1,2.437,1.866,3.41,3.41,0,0,1,.7,2.447c0,1.082-.017,2.165-.071,3.246" transform="translate(77.431 125.296)" fill="#545366"/>
            <path id="Path_38321" data-name="Path 38321" d="M109.091,204.479c9.909-.067,19.693-3.114,29.146-6.277a74.61,74.61,0,0,0,12.433-5.029,27.676,27.676,0,0,0,8.014-6.342,12.2,12.2,0,0,0,1.07-1.415c-.052-.2-.1-.4-.158-.6a2.127,2.127,0,0,0-1.91.433c-12.469,11.454-30.97,16.332-48.595,19.229" transform="translate(78.636 117.078)" fill="#545366"/>
            <path id="Path_38322" data-name="Path 38322" d="M114.14,212.252a2.116,2.116,0,0,1-.659,1.353,2.3,2.3,0,0,1-1.158.346c-6.78.712-13.645-1.683-19.1-5.568-2.23-1.588-4.4-3.661-4.7-6.293a2.754,2.754,0,0,1,.876-2.572A4.1,4.1,0,0,1,91.85,199c5.07,0,10.141-.011,15.21.113,1.716.042,4.428-.354,5.978.528,1.506.856,1.437,3.109,1.557,4.555a28.855,28.855,0,0,1-.456,8.059" transform="translate(63.791 126.111)" fill="#f7c168"/>
            <path id="Path_38323" data-name="Path 38323" d="M73.984,197.064c3.227.833,6.453,1.632,9.716,2.364a8.718,8.718,0,0,0,3.507.382c-.649-.415-1.334-.832-2-1.216-2.578-.482-5.138-1.014-7.7-1.647,0-.484.456-1.632.456-2.132a5.344,5.344,0,0,0-3.314.866,2.375,2.375,0,0,0-.666,1.382" transform="translate(53.33 123.462)" fill="#545366"/>
            <path id="Path_38324" data-name="Path 38324" d="M163.422,231.24a8.67,8.67,0,0,0,2.068-1.431A527.291,527.291,0,0,1,170,164.827c-.124-.3-.263-.6-.422-.9-1.963,3.13-2.332,8.259-2.982,11.82-.718,4.112-1.227,8.242-1.612,12.387-.754,8.442-.965,16.9-1.28,25.357-.193,4.86-.4,9.722-.79,14.568a5.024,5.024,0,0,0,.509,3.179" transform="translate(117.406 103.887)" fill="#545366"/>
            <path id="Path_38325" data-name="Path 38325" d="M177.155,185.959c.878,5.328,1.982,10.624,2.7,15.983a208.525,208.525,0,0,1,1.368,26.689,1.9,1.9,0,0,0,1.6-2c-1.685-18.546-2.946-37.594-6.506-56.026a1.208,1.208,0,0,0-.246-.149c-1.561,4.194.385,11.137,1.088,15.5" transform="translate(126.49 108.027)" fill="#545366"/>
            <path id="Path_38326" data-name="Path 38326" d="M157.008,210.683v.15c17.888,1.015,36.353-.467,53.065,5.578a6.537,6.537,0,0,1,2.385,1.3,6.256,6.256,0,0,1,1.385,3.013q2.656,10.364,5.331,20.745,2.315,9.089,4.665,18.18c1.351,5.261,3.051,10.389,2.4,15.851-.088.7-.227,1.447-.351,2.2.124-.051.229-.118.334-.167,2.139-1.248,1.771-2.514,3.051-4.545-5.1-18.763-8.506-37.411-13.608-56.174a175.442,175.442,0,0,0-58.66-6.127" transform="translate(113.177 133.3)" fill="#6f7182"/>
            <path id="Path_38327" data-name="Path 38327" d="M163.178,276.388c4,.782,8.031,1.431,12.065,1.947a203.845,203.845,0,0,0,24.271,1.831c6.192.134,12.364-.016,18.554-.433.754-.748,1.49-1.514,2.227-2.281a214.173,214.173,0,0,0,.561-23.175c-9.592.4-19.359.449-29.11.665-5.261.118-10.523.284-15.73.583-3.368.183-6.735.433-10.067.766-.929.1-2.315-.35-2.456.516a71.041,71.041,0,0,0-.315,19.579" transform="translate(117.247 161.146)" fill="#363347"/>
            <path id="Path_38328" data-name="Path 38328" d="M169.97,278.078a203.852,203.852,0,0,0,24.271,1.831c-1.824-2.031-2.824-4.811-3.629-7.458a138.622,138.622,0,0,1-4.139-17.765c-5.262.116-10.523.283-15.732.583a5.934,5.934,0,0,0,1.158.949,173.541,173.541,0,0,1,2.3,19.046,1.529,1.529,0,0,1-.122.882,1.605,1.605,0,0,1-.824.565c-1.088.467-2.175.917-3.28,1.366" transform="translate(122.52 161.404)" fill="#403c54"/>
            <path id="Path_38329" data-name="Path 38329" d="M193.46,281.953c.824-.732,1.631-1.514,2.4-2.3.754-.75,1.49-1.516,2.227-2.282a212.617,212.617,0,0,0,.58-22.341c-2.685-2.449-2.141,2.98-2.158,4.178-.088,3.431-.158,6.876-.244,10.306a41.512,41.512,0,0,1-.422,5.878,20.161,20.161,0,0,1-2.385,6.559" transform="translate(139.453 161.226)" fill="#6f7182"/>
            <path id="Path_38330" data-name="Path 38330" d="M164.376,211.291c1.421.033,2.122,1.581,2.7,2.83,2.158,4.646,3.245,9.69,4.262,14.686,2.963,14.617,5.4,29.335,7.856,44.036.246,1.532.456,3.246-.544,4.462-1.034,1.266-2.91,1.465-4.595,1.565a4.251,4.251,0,0,0,.124.449,172.159,172.159,0,0,0,28.531.667c.351-.083.683-.183,1.017-.283-1.21-.817-2.893-.766-4.085-1.581-1.229-.849-1.631-2.382-1.965-3.8q-1.551-6.967-3.139-13.918-3.5-15.458-7-30.9c-.841-3.681-1.666-7.376-2.332-11.1-.4-2.282-.422-5.2,1.754-6.244a108.226,108.226,0,0,0-14.82-1.382,55.058,55.058,0,0,0-7.768.516" transform="translate(118.488 133.575)" fill="#403c54"/>
            <path id="Path_38331" data-name="Path 38331" d="M180.631,205.2a6.85,6.85,0,0,0,.1.85.057.057,0,0,0,.017.049A8.851,8.851,0,0,1,183,211.448a1.1,1.1,0,0,0,.614.1.723.723,0,0,0,.349-.134,14.436,14.436,0,0,0-2.49-7.425.543.543,0,0,0-.632.381c0,.018-.017.034-.017.052a1.284,1.284,0,0,0-.193.781" transform="translate(130.203 129.273)" fill="#f7c168"/>
            <path id="Path_38332" data-name="Path 38332" d="M164.849,204.606a4.744,4.744,0,0,0,0,.7c.017.1.017.183.034.283a5.182,5.182,0,0,1,.685,1.065,7.419,7.419,0,0,1,.525,4.413,1.077,1.077,0,0,0,.931.317h.017a13.465,13.465,0,0,0-.6-6.494,8.507,8.507,0,0,0-.613-1.248,1.09,1.09,0,0,0-.983.966" transform="translate(118.82 129.055)" fill="#f7c168"/>
            <path id="Path_38333" data-name="Path 38333" d="M84.613,432.454v.1a114.773,114.773,0,0,0,13.835-2.313,58.512,58.512,0,0,1,22.817-21.727,44.621,44.621,0,0,1,6.032-2.431,3.443,3.443,0,0,1,1.473,2.746,75.32,75.32,0,0,1,0,22.727,10.464,10.464,0,0,1,4.192.033c0-9.057.4-17.432,2.419-26.488,1.561-7.094,6.4-12.653,9.189-19.414a60.043,60.043,0,0,0-5.016-14.235,38.281,38.281,0,0,0-8.434,3.98c-5.8,3.646-8.331,9.806-12.345,15.2a99.493,99.493,0,0,1-9.067,11.054c-4.8,4.862-10.592,8.742-15.52,13.47-4.946,4.728-9.155,10.655-9.575,17.3" transform="translate(60.992 235.403)" fill="#363347"/>
            <path id="Path_38334" data-name="Path 38334" d="M160.187,381.885a37.6,37.6,0,0,1,18.466,5.61,32.264,32.264,0,0,1-1.1-7.775c-.492-6.443-7.838-9.289-14.837-9.572-1.034,3.878-1.859,7.791-2.525,11.737" transform="translate(115.468 234.576)" fill="#363347"/>
            <path id="Path_38335" data-name="Path 38335" d="M147.092,22.157c-.256,3.377-.582,6.95-2.736,9.644a8.7,8.7,0,0,1-.8,6.706c-2.053,3.393-4.087,6.8-6.123,10.2-2.48,4.124-4.994,8.3-8.5,11.691-4.293,4.14-10.3,6.218-15.529,9.222a26.156,26.156,0,0,1-6.4,2.647,10.447,10.447,0,0,1-3.729.438,10.8,10.8,0,0,1-4.6-1.8,35.43,35.43,0,0,1-4.293-3.053c-.905-.747-.752-2.158-1.385-3.117-1.556-2.305-.427-5.569,1.865-7.257a28.754,28.754,0,0,1-7.577-2.014,9.027,9.027,0,0,1-5.063-5.422,8.771,8.771,0,0,1,.017-4.156c1.146-5.391,5.575-10.44,11.254-11.464a7.55,7.55,0,0,1,4.959-6.867c2.872-1.137,6.5-.585,9.268.763a17.918,17.918,0,0,1,.2-15.23,22.215,22.215,0,0,1,6.808-8.216,26.435,26.435,0,0,1,4.533-2.777C122.791.4,126.895-.575,130.708.368c3.609.877,6.551,3.328,9.32,5.682.924.8,1.865,1.608,2.755,2.452a14.856,14.856,0,0,1,3.676,5.13c1.045,2.7.855,5.667.633,8.525" transform="translate(59.094 0)" fill="#522b21"/>
            <path id="Path_38336" data-name="Path 38336" d="M195.088,101.6c-.2,6.625-4.19,12.583-8.516,17.778a142.567,142.567,0,0,1-11.528,11.805l-1.385,1.315c-4.908,4.692-12.775,3.571-19.051,2.371a67.241,67.241,0,0,1-16.966-5.6,65.959,65.959,0,0,1-27.551-25.182A69.152,69.152,0,0,1,100.12,65.2a59.685,59.685,0,0,1,4.634-20.084c.12-.292.256-.6.394-.894,5.472-12.178,17.991-20.8,31.4-23.851a56.614,56.614,0,0,1,8.432-1.266A54.138,54.138,0,0,1,173.35,24.27,42.332,42.332,0,0,1,183.493,31.4a35.921,35.921,0,0,1,8.893,13.152c2.616,6.95,2.8,14.628,1.487,21.854-1.265,6.819-2.941,14.792-2.65,20.685,2,4.661,4.018,9.482,3.865,14.516" transform="translate(72.103 11.996)" fill="#a65632"/>
            <path id="Path_38337" data-name="Path 38337" d="M141.347,62.379a113.8,113.8,0,0,0,11.146-14.267,10.758,10.758,0,0,0-6.992-1.163c-1.915,4.653-3.762,10.449-4.154,15.431" transform="translate(101.888 29.653)" fill="#914023"/>
            <path id="Path_38338" data-name="Path 38338" d="M137.936,46.995a39.712,39.712,0,0,1-.805,17.169c-3-3.949-6.842-7.732-9.848-11.681-.215-.284-.442-.634-.315-.961a1.107,1.107,0,0,1,.578-.5,45.76,45.76,0,0,1,10.39-4.027" transform="translate(91.496 29.782)" fill="#914023"/>
            <path id="Path_38339" data-name="Path 38339" d="M183.492,31.4c.256,6.105-1.932,12.225-7.234,15.44a1.35,1.35,0,0,1-1.232.243,199.26,199.26,0,0,1-41.711,7.891,59.608,59.608,0,0,0-5.2,43.84c4.225,15.391,13.392,27.488,29.69,32.846a25.452,25.452,0,0,0,15.083.616c.976-.291.325-1.055,1.351-1.152a1.922,1.922,0,0,1,.8.065l-1.385,1.315c-4.908,4.692-12.774,3.571-19.051,2.371a67.263,67.263,0,0,1-16.966-5.6A65.959,65.959,0,0,1,110.09,104.09,69.166,69.166,0,0,1,100.119,65.2a59.726,59.726,0,0,1,4.634-20.084c.12-.292.256-.6.394-.894,5.472-12.178,17.991-20.8,31.4-23.851a56.615,56.615,0,0,1,8.432-1.266,54.147,54.147,0,0,1,28.373,5.163A42.356,42.356,0,0,1,183.492,31.4" transform="translate(72.102 11.996)" fill="#914023"/>
            <path id="Path_38340" data-name="Path 38340" d="M152.171,77.345c-1.566,2.1-4.712,3.282-7.406,3.816-3.1.614-6.6-2.045-9.394-.675a5.155,5.155,0,0,0-2.378,3.009,23.287,23.287,0,0,0,13.123,2.372c.324.225.78.021,1.119-.185a19.805,19.805,0,0,0,5.7-4.5,4.669,4.669,0,0,0,.991-2.108A2.427,2.427,0,0,0,153.4,76.9a37.927,37.927,0,0,1-6.209-6.965,78.926,78.926,0,0,1,3.153-21.376,71.718,71.718,0,0,0-4.669,20.68,17.8,17.8,0,0,0,6.493,8.1" transform="translate(95.865 30.776)" fill="#7d2815"/>
            <path id="Path_38341" data-name="Path 38341" d="M141.614,54.193a8.81,8.81,0,0,0,1.392-7.46c-.315-1.4-9.441,1.519-10.318,1.879-5.218,2.134-9.547,4.521-12.065,9.247a38.716,38.716,0,0,1,8.6-2.993,46.56,46.56,0,0,1,8.048-.5c1.334,0,3.011-.17,4.343-.175" transform="translate(86.949 29.377)" fill="#522b21"/>
            <path id="Path_38342" data-name="Path 38342" d="M159.287,50.63c-.287-1.555-1.821-2.472-3.209-3.148a24.875,24.875,0,0,0-5.538-2.1,9.9,9.9,0,0,0-5.77.694,34.909,34.909,0,0,1-2.115,6.524c4.454.376,8.616-2.39,13.07-2.748a6.607,6.607,0,0,1,3.562.783" transform="translate(102.831 28.647)" fill="#522b21"/>
            <path id="Path_38343" data-name="Path 38343" d="M141.331,66.512A8.615,8.615,0,0,1,134.82,70.7c-.177.033-.354.065-.532.082a19.76,19.76,0,0,1-8.587-1.346,11.993,11.993,0,0,1-5.073-3.035c.017-1.856,1.189-3.529,2.483-4.94a24.811,24.811,0,0,1,4.027-3.513,25.279,25.279,0,0,1,3.975-2.315,11.985,11.985,0,0,1,4.913-1.314,7.421,7.421,0,0,1,6.192,3.25c1.81,2.857.621,5.926-.886,8.946" transform="translate(86.953 34.422)" fill="#fff7e6"/>
            <path id="Path_38344" data-name="Path 38344" d="M154.67,67.993a7.64,7.64,0,0,1-2.215.515c-.7.069-1.4.116-2.108.129a3.771,3.771,0,0,1-.451-.02,1.505,1.505,0,0,1-.263-.008c-2.925-.154-8.248-1.479-7.159-5.342a19.7,19.7,0,0,1,4.034-7.51,7.76,7.76,0,0,1,1.151-1.114c2.266-1.921,5.584-2.97,8.072-.959a6.883,6.883,0,0,1,2.278,4.184,20.42,20.42,0,0,1,.071,4.865,6.434,6.434,0,0,1-3.411,5.261" transform="translate(102.596 33.332)" fill="#fff7e6"/>
            <path id="Path_38345" data-name="Path 38345" d="M138.829,66.512a8.615,8.615,0,0,1-6.512,4.186,9.7,9.7,0,0,1-7.682-12.753,25.281,25.281,0,0,1,3.975-2.315,11.985,11.985,0,0,1,4.913-1.314,7.421,7.421,0,0,1,6.192,3.25c1.81,2.857.621,5.926-.886,8.946" transform="translate(89.456 34.422)" fill="#522b21"/>
            <path id="Path_38346" data-name="Path 38346" d="M152.966,67.993a7.64,7.64,0,0,1-2.215.515c-.7.069-1.4.116-2.108.129a3.77,3.77,0,0,1-.451-.02,5.693,5.693,0,0,1-3.044-3.521,12.806,12.806,0,0,1-.4-4.846,18.352,18.352,0,0,1,1.2-5.609c2.266-1.921,5.584-2.97,8.072-.959a6.883,6.883,0,0,1,2.278,4.184,20.42,20.42,0,0,1,.071,4.865,6.434,6.434,0,0,1-3.411,5.261" transform="translate(104.3 33.332)" fill="#522b21"/>
            <path id="Path_38347" data-name="Path 38347" d="M162.192,70.8c-3.886,1.624-7.684,3.285-11.569,4.909a67.765,67.765,0,0,0-21.915,1.1A35.883,35.883,0,0,0,144.636,88.2c2.991,1.008,5.266,1.394,7.99-.541a17.96,17.96,0,0,0,3.586-3.643c2.834-3.581,5.515-6.97,5.878-11.435.041-.513-.177-1.34.1-1.781" transform="translate(92.777 44.866)" fill="#7d2815"/>
            <path id="Path_38348" data-name="Path 38348" d="M132.881,75.72a8.047,8.047,0,0,1-.083-1c-.009-.356.021-.707.046-1.065.012-.163.193-.807.12-.915-.122-.185-.411-.154-.63-.088-2.776.794-6.327,3.186-5.608,6.349a18.021,18.021,0,0,1,6.419-2.094,7.952,7.952,0,0,1-.265-1.186" transform="translate(91.282 46.01)" fill="#7d2815"/>
            <path id="Path_38349" data-name="Path 38349" d="M147.989,69.322a1.87,1.87,0,0,1,.792.779,8.375,8.375,0,0,1,1.246,3.45,1.222,1.222,0,0,1-.021.547c-.311.9-2.053-.413-2.256-.97a3.894,3.894,0,0,1,.04-1.655,12.688,12.688,0,0,0,.2-2.152" transform="translate(106.443 43.932)" fill="#7d2815"/>
            <path id="Path_38350" data-name="Path 38350" d="M160.054,72.707a30.937,30.937,0,0,1-2.9,5.542,20.744,20.744,0,0,1-3.681,4.217c-.6.539-.941,1.217-1.767,1.371-.1.015-.179.031-.26.046C147.7,84.5,143.5,82.99,140.1,81.65c-.972-.386-1.929-.815-2.886-1.263-.843-.384-1.686-.815-2.512-1.247-.876-.446-1.752-.923-2.611-1.4-.454-.261-.891-.508-1.346-.755-.26-.168-.811-.631-1.119-.645,2.383.2,4.767.384,7.15.569,1.962.154,3.939.323,5.9.524,2.8.276,5.625.954,8.43,1.015a4.311,4.311,0,0,0,2.125-.985c1.49-.908,2.934-1.862,4.345-2.893.843-.585,1.669-1.215,2.48-1.862" transform="translate(93.437 46.077)" fill="#522b21"/>
            <path id="Path_38351" data-name="Path 38351" d="M154.578,73.847c-.114,1.216-.293,2.632-.422,3.679a20.745,20.745,0,0,1-3.681,4.217c-.6.539-.94,1.217-1.767,1.371-.1.015-.177.031-.258.046-3.746.616-7.945-.892-11.349-2.232-.974-.386-1.931-.815-2.886-1.263a20.672,20.672,0,0,1-.439-3.478c1.962.154,3.941.323,5.9.524,2.8.276,5.625.954,8.43,1.015a4.306,4.306,0,0,0,2.124-.985c1.492-.908,2.934-1.862,4.345-2.893" transform="translate(96.431 46.8)" fill="#fff7e6"/>
            <path id="Path_38352" data-name="Path 38352" d="M205.89,37.6a43.746,43.746,0,0,1-5.2,13.346A30.449,30.449,0,0,1,196.57,56.3c-2.189-2-4.841-3.735-5.011-6.625-2.172,4.806-9.236,6.852-14.673,6.138-5.44-.73-10.175-3.994-13.87-7.858-.463,3.019-4.225,5.277-7.32,6.056a30.065,30.065,0,0,1-22.813-3.573,10.6,10.6,0,0,1,.564,4.4,8.718,8.718,0,0,1-.941,3.424,25.919,25.919,0,0,1-6.414,8.639c-5.866,5.179-6.532,13.767-7.148,21.333-1.232,1.591-2.65,3.119-4,4.677-.649.763-1.3,1.526-1.881,2.305-.991,1.331-2.1,2.532-2.993,3.847a8.5,8.5,0,0,0-1.471,3.475,17.223,17.223,0,0,1-1.146-1.98,45.658,45.658,0,0,0-2.086-4.32c-2.771-4.514-5.541-9.075-7.252-14.029s.478-11.17-.034-16.365c-.547-5.716.394-11.464.855-17.211.325-3.945,2.549-7.533,5.166-10.634a42.807,42.807,0,0,1,5.541-5.457,47.67,47.67,0,0,1,27.107-10.716,21.492,21.492,0,0,1,8.824-8.378,27.253,27.253,0,0,1,10.072-2.825c2.173-.2,4.533-.1,6.295,1.119,2.137,1.479,2.839,4.173,3.4,6.625a10.119,10.119,0,0,1,2.378-1.818,4.714,4.714,0,0,1,3.4-.471,3.243,3.243,0,0,1,2.239,3.735c5.832-1.673,11.972-1.121,17.959-.082,5.4.925,10.979,3.3,13.51,7.907a14.292,14.292,0,0,1,1.06,9.953" transform="translate(70.243 6.688)" fill="#5c2d21"/>
            <path id="Path_38353" data-name="Path 38353" d="M106.53,53.747c-1.757-.4-3.743-.569-5.249.377A5.605,5.605,0,0,0,99.018,58.4c-.377,3.431.814,6.845,2.3,9.994a54.592,54.592,0,0,0,6.422,10.389A8.141,8.141,0,0,0,111.2,81.7a6.1,6.1,0,0,0,6.131-1.753,13.752,13.752,0,0,0,2.98-5.73c1.189-3.808,1.652-9.16-.871-12.621-2.877-3.95-8.079-6.756-12.91-7.855" transform="translate(71.325 33.859)" fill="#a65632"/>
            <path id="Path_38354" data-name="Path 38354" d="M123.681,27.759a19.712,19.712,0,0,1-6.4,1.884c-4.309.585-9.012.082-12.433-2.485-4.207-3.15-5.576-8.687-5.336-13.767a17.243,17.243,0,0,1,2.6-8.525,26.426,26.426,0,0,1,4.533-2.776C110.17.4,114.275-.574,118.088.367c3.609.877,6.551,3.328,9.32,5.682.924.8,1.865,1.608,2.755,2.452.188.374.358.779.513,1.186a14.939,14.939,0,0,1-7,18.071" transform="translate(71.715 0)" fill="#5c3328"/>
            <path id="Path_38355" data-name="Path 38355" d="M102.191,22.882a4.306,4.306,0,0,0-4.261-5.311q-1.208-.027-2.414-.057A3.876,3.876,0,0,0,91.792,20.2a3.656,3.656,0,0,0,1.774,4.14l1.366.668a2.5,2.5,0,0,0,.5,4.068c.294.181.587.368.885.541a3.359,3.359,0,0,0,3.849-.471,2.883,2.883,0,0,0,1.081-1.678,3.2,3.2,0,0,0-.583-1.978,2.246,2.246,0,0,0-.246-.291,4.294,4.294,0,0,0,1.774-2.322" transform="translate(66.091 11.098)" fill="#5c3328"/>
            <path id="Path_38356" data-name="Path 38356" d="M186.993,37.6a43.746,43.746,0,0,1-5.2,13.346c-3.54-.779-6.379-4.643-5.61-8.02-5.386,3.539-12.433,3.555-19,3.426a12.411,12.411,0,0,1-4.72-.716,9.521,9.521,0,0,1-3.455-2.89c-1.607-2.013-4.1-4.8-3.968-7.339-4.651,1.722-8.995.18-13.92-.471a1.966,1.966,0,0,1-1.59-1.608,3.862,3.862,0,0,1,.341-2.305c1.471-3.653,4.1-6.95,8.227-7.273-2.891-.1-5.8.405-8.62-.114-2.822-.5-5.7-2.483-5.815-5.212a5.629,5.629,0,0,1,2.051-4.205,8.378,8.378,0,0,1,.958-.763,27.253,27.253,0,0,1,10.072-2.825c2.173-.2,4.533-.1,6.295,1.119,2.137,1.479,2.839,4.173,3.4,6.625a10.118,10.118,0,0,1,2.378-1.818,4.714,4.714,0,0,1,3.4-.471,3.243,3.243,0,0,1,2.239,3.735c5.832-1.673,11.972-1.121,17.959-.082,5.4.925,10.979,3.3,13.51,7.907a14.292,14.292,0,0,1,1.06,9.953" transform="translate(89.14 6.688)" fill="#6b3628"/>
            <path id="Path_38357" data-name="Path 38357" d="M130.39,40.53a5.364,5.364,0,0,0,3.6-.833,4.332,4.332,0,0,0,1.415-2.552,8.025,8.025,0,0,0-.559-5.009,13.2,13.2,0,0,0-2.323-3.284A15.393,15.393,0,0,0,128,25.235c-4.665-2.271-11.561.853-10.3,6.352,1.146,5,7.7,8.691,12.695,8.943" transform="translate(84.73 15.518)" fill="#6b3628"/>
            <path id="Path_38358" data-name="Path 38358" d="M125.212,25.342c.977-.389,2.046-.936,2.3-1.913a2.263,2.263,0,0,0-.976-2.255,7.268,7.268,0,0,0-2.461-1.041c-3.141-.889-10.747-1.843-11.2,3.137-.513,5.635,9.5,3.2,12.335,2.072" transform="translate(81.352 12.307)" fill="#6b3628"/>
            <path id="Path_38359" data-name="Path 38359" d="M118.612,27.424a4.726,4.726,0,0,0-2.762-1.165,3.053,3.053,0,0,0-3.633,1.959,4.886,4.886,0,0,0-.153,2.952,4.99,4.99,0,0,0,3.376,3.287,3.889,3.889,0,0,0,3.319-.647,3.745,3.745,0,0,0,1.5-2.839,4.586,4.586,0,0,0-1.65-3.547" transform="translate(80.657 16.611)" fill="#6b3628"/>
            <path id="Path_38360" data-name="Path 38360" d="M106.53,53.747c-1.757-.4-3.743-.569-5.249.377A5.605,5.605,0,0,0,99.018,58.4c-.377,3.431.814,6.845,2.3,9.994a54.592,54.592,0,0,0,6.422,10.389A8.141,8.141,0,0,0,111.2,81.7a6.1,6.1,0,0,0,6.131-1.753,13.752,13.752,0,0,0,2.98-5.73c1.189-3.808,1.652-9.16-.871-12.621-2.877-3.95-8.079-6.756-12.91-7.855" transform="translate(71.325 33.859)" fill="#914023"/>
          </g>
        </g>
      </g>
    </g>
  </g>
</svg>
