<svg width="66" height="67" viewBox="0 0 66 67" fill="none" xmlns="http://www.w3.org/2000/svg">
<path d="M23.857 35.286H55.857" stroke="#FFA101" stroke-width="2" stroke-miterlimit="10" stroke-linecap="square"/>
<path d="M55.857 11.286H23.857V26.143H55.857V11.286Z" stroke="#FFA101" stroke-width="2" stroke-miterlimit="10" stroke-linecap="square"/>
<path d="M55.857 53.571H23.857" stroke="#FFA101" stroke-width="2" stroke-miterlimit="10" stroke-linecap="square"/>
<path d="M55.857 44.429H23.857" stroke="#FFA101" stroke-width="2" stroke-miterlimit="10" stroke-linecap="square"/>
<path d="M9 37.571H1V58.142C1.00554 59.9589 1.72975 61.6998 3.01449 62.9845C4.29923 64.2693 6.04011 64.9935 7.857 64.999" stroke="#FFA101" stroke-width="2" stroke-miterlimit="10" stroke-linecap="square"/>
<path d="M14.714 1V58.143C14.7085 59.9599 13.9843 61.7008 12.6995 62.9855C11.4148 64.2702 9.67389 64.9945 7.857 65H58.143C59.9599 64.9945 61.7008 64.2702 62.9855 62.9855C64.2702 61.7008 64.9945 59.9599 65 58.143V1H14.714Z" stroke="#FFA101" stroke-width="2" stroke-miterlimit="10" stroke-linecap="square"/>
</svg>
